<svg width="40" height="40" viewBox="0 0 40 40" fill="none" xmlns="http://www.w3.org/2000/svg">
<circle cx="20" cy="20" r="18.5" fill="#BF6BBB" stroke="white" stroke-width="3"/>
<path d="M20.0006 17.5977C18.6998 17.5977 17.6006 18.6969 17.6006 19.9977C17.6006 21.2985 18.6998 22.3977 20.0006 22.3977C21.3014 22.3977 22.4006 21.2985 22.4006 19.9977C22.4006 18.6969 21.3014 17.5977 20.0006 17.5977Z" fill="white"/>
<path d="M26.4005 14.3971H24.3317L22.1661 12.2315C22.0919 12.157 22.0038 12.098 21.9067 12.0578C21.8096 12.0176 21.7056 11.9969 21.6005 11.9971H18.4005C18.2954 11.9969 18.1913 12.0176 18.0943 12.0578C17.9972 12.098 17.9091 12.157 17.8349 12.2315L15.6693 14.3971H13.6005C12.7181 14.3971 12.0005 15.1147 12.0005 15.9971V24.7971C12.0005 25.6795 12.7181 26.3971 13.6005 26.3971H26.4005C27.2829 26.3971 28.0005 25.6795 28.0005 24.7971V15.9971C28.0005 15.1147 27.2829 14.3971 26.4005 14.3971ZM20.0005 23.9971C17.8325 23.9971 16.0005 22.1651 16.0005 19.9971C16.0005 17.8291 17.8325 15.9971 20.0005 15.9971C22.1685 15.9971 24.0005 17.8291 24.0005 19.9971C24.0005 22.1651 22.1685 23.9971 20.0005 23.9971Z" fill="white"/>
</svg>
