<svg width="119" height="138" viewBox="0 0 119 138" fill="none" xmlns="http://www.w3.org/2000/svg">
<path d="M75.9057 58.589C76.733 57.4232 77.41 56.4454 78.0493 55.3548C78.6886 54.2641 79.3279 53.0983 79.9296 51.4812C80.0801 51.0299 80.3433 50.3906 80.569 49.5632C80.6818 49.1496 80.7946 48.6983 80.9074 48.1718C80.945 47.9085 81.0203 47.6453 81.0579 47.382C81.0955 47.0811 81.1707 46.7803 81.2083 46.4794C81.2459 46.1786 81.2835 45.8401 81.3211 45.5393C81.3587 45.2384 81.3587 44.8999 81.3963 44.5615C81.5091 41.9666 81.2459 39.0708 80.4561 36.2503C79.6664 33.3921 78.3125 30.6092 76.5074 28.2399C74.7398 25.833 72.521 23.8398 70.1894 22.4108C67.8953 20.9441 65.4884 20.1167 63.3824 19.6654C61.2764 19.2141 59.5089 19.1765 58.3055 19.2141C57.7037 19.2518 57.2148 19.2894 56.8764 19.327C56.7259 19.327 56.5755 19.3646 56.5003 19.3646C56.4251 19.3646 56.3875 19.4022 56.3875 19.4022C56.3875 19.4022 55.7105 19.515 54.5071 19.7407C53.9054 19.8911 53.1909 20.0791 52.3635 20.3424C51.9498 20.4928 51.5361 20.6808 51.0848 20.8313C50.8592 20.9065 50.6336 21.0193 50.4079 21.0945C50.1823 21.2073 49.9566 21.3202 49.6934 21.433C47.7754 22.3732 45.6694 23.7646 43.7514 25.7202C41.8335 27.6382 40.1035 30.0827 38.9001 32.7904C37.659 35.4981 36.9445 38.5067 36.7189 41.4401C36.6437 42.9067 36.6437 44.3734 36.8317 45.7649C36.9069 46.4794 37.0197 47.1564 37.1702 47.7957C37.2454 48.1342 37.3206 48.4726 37.3958 48.7735C37.4334 48.9239 37.471 49.1119 37.5086 49.2624C37.5462 49.4128 37.5838 49.5632 37.6214 49.6761C38.1856 51.8949 38.9377 53.5872 39.3138 54.4522C40.0283 55.9941 40.7428 57.1599 41.4574 58.2129C42.1719 59.2659 42.9241 60.1685 43.8266 61.2591C42.9241 60.1685 42.2847 59.1907 41.683 58.0625C41.0813 56.9719 40.5548 55.7684 39.9907 54.1889C39.6898 53.324 39.0881 51.6316 38.6744 49.4504C38.6368 49.1495 38.5616 48.8487 38.524 48.5478C38.4864 48.247 38.4112 47.9085 38.3736 47.6077C38.2984 46.9683 38.2232 46.2914 38.1856 45.6521C38.1103 44.3358 38.1479 42.9443 38.2984 41.5529C38.6368 38.8075 39.4266 36.0246 40.63 33.5425C41.8335 31.0604 43.4882 28.8792 45.2557 27.1493C47.0233 25.4194 48.9788 24.1783 50.6712 23.351C50.8968 23.2381 51.0849 23.1253 51.3105 23.0501C51.5361 22.9749 51.7242 22.8997 51.9498 22.8244C52.3635 22.674 52.7396 22.5236 53.1156 22.3732C53.8678 22.1851 54.5071 21.9971 55.0336 21.8467C56.1242 21.6586 56.7259 21.5458 56.7259 21.5458C56.7259 21.5458 56.7636 21.5458 56.8388 21.5458C56.914 21.5458 57.0268 21.5458 57.1772 21.5082C57.4781 21.4706 57.8918 21.4706 58.4559 21.433C59.5465 21.3954 61.126 21.433 63.0064 21.8091C64.8867 22.1851 67.0303 22.9373 69.174 24.2159C71.28 25.4946 73.3484 27.2621 75.0783 29.4433C76.8082 31.6246 78.1621 34.1442 79.0271 36.7768C79.892 39.4093 80.3057 42.117 80.3057 44.5991C80.3057 44.8999 80.3057 45.2008 80.3057 45.5016C80.3057 45.8025 80.2681 46.1034 80.2681 46.4042C80.2305 46.7051 80.1929 47.0059 80.1929 47.2692C80.1553 47.5324 80.1177 47.7957 80.0801 48.0589C80.0049 48.5478 79.9296 48.9991 79.8544 49.4128C79.704 50.2402 79.516 50.8795 79.3655 51.3308C78.9142 52.9479 78.4254 54.1513 77.9365 55.3171C77.2595 56.3702 76.733 57.4608 75.9057 58.589Z" fill="#D6163F"/>
<path d="M72.5609 51.3738C73.0122 50.5464 73.3506 49.8319 73.6891 49.0421C74.0276 48.2524 74.3284 47.425 74.5917 46.3344C74.6669 46.0335 74.7797 45.5822 74.8549 45.0181C74.8925 44.7173 74.9301 44.4164 74.9677 44.0779C74.9677 44.0027 75.0053 43.8899 75.0053 43.8147C75.0053 43.7019 75.043 43.5891 75.043 43.4762C75.0806 43.2506 75.0806 43.0249 75.0806 42.7993C75.1182 42.348 75.1182 41.8591 75.0806 41.4078C75.043 40.9189 75.0806 40.43 75.0053 39.9411C74.9301 39.4522 74.8549 38.9257 74.8173 38.4369C74.7045 37.948 74.5917 37.4215 74.4788 36.895C74.3284 36.3685 74.1404 35.8796 73.99 35.3531C73.2378 33.3223 72.1096 31.3291 70.6429 29.6744C69.2138 28.0196 67.4463 26.6658 65.6411 25.8008C63.836 24.8982 62.0308 24.4845 60.4513 24.2965C58.8718 24.1837 57.5932 24.2589 56.7282 24.4093C56.2769 24.4845 55.9384 24.5222 55.7128 24.5598C55.4872 24.5974 55.3743 24.635 55.3743 24.635C55.3743 24.635 55.2615 24.6726 55.0359 24.7102C54.8102 24.7854 54.4718 24.823 54.0205 24.9734C53.7948 25.0487 53.5692 25.1239 53.3059 25.1991C53.1931 25.2367 53.0427 25.2743 52.8923 25.3495C52.7418 25.4247 52.629 25.4623 52.4786 25.5376C52.1777 25.688 51.8769 25.8008 51.576 25.9512C51.2751 26.1393 50.9367 26.3273 50.5982 26.5153C49.282 27.3427 47.8153 28.5461 46.6118 30.1632C45.4084 31.7428 44.4306 33.7359 43.8289 35.8419C43.2272 37.948 43.0015 40.2044 43.0391 42.348C43.0768 42.8745 43.0768 43.4386 43.152 43.9651C43.2272 44.4916 43.2648 45.0181 43.34 45.507C43.4528 45.9959 43.528 46.5224 43.6409 47.0113C43.7161 47.237 43.7537 47.5002 43.8289 47.7259L43.9041 48.0643C43.9041 48.1395 43.9417 48.1771 43.9417 48.2524L43.9793 48.4028C44.4306 49.8695 44.9571 50.9601 45.2204 51.5242C46.2358 53.555 47.1007 54.5328 48.229 56.0371C47.1007 54.5328 46.499 53.3669 45.634 51.3362C45.4084 50.772 44.9571 49.6438 44.6187 48.2148L44.581 48.1019C44.581 48.0643 44.5434 47.9891 44.5434 47.9139L44.4682 47.5754C44.4306 47.3498 44.3554 47.1241 44.3178 46.8609C44.2426 46.372 44.1674 45.8831 44.0922 45.3942C44.0169 44.9053 44.0169 44.4164 43.9793 43.8899C43.9417 43.401 43.9793 42.8745 43.9417 42.348C43.9793 40.2796 44.2802 38.1736 44.9195 36.218C45.5212 34.2624 46.4614 32.4573 47.6272 31.0282C48.7555 29.5991 50.0717 28.5085 51.2751 27.794C51.576 27.606 51.8769 27.4555 52.1401 27.3051C52.441 27.1547 52.7042 27.0418 52.9675 26.929C53.0803 26.8538 53.2307 26.8162 53.3435 26.741C53.4564 26.7034 53.6068 26.6658 53.7196 26.6282C53.9453 26.5529 54.1709 26.4777 54.3589 26.4025C54.735 26.2521 55.0735 26.2145 55.2615 26.1393C55.4872 26.1017 55.6 26.0641 55.6 26.0641C55.6 26.0641 55.7128 26.0264 55.9384 25.9888C56.1641 25.9512 56.465 25.9136 56.8786 25.8384C57.6684 25.688 58.8718 25.6504 60.2633 25.7256C61.6548 25.876 63.3095 26.2521 64.9642 27.0418C66.6189 27.8316 68.236 28.9974 69.6275 30.5017C71.019 32.006 72.1472 33.8112 72.9369 35.6915C73.125 36.1804 73.313 36.6317 73.4634 37.1206C73.6139 37.6095 73.7267 38.0984 73.8771 38.5497C73.9523 39.0386 74.0652 39.5275 74.1404 39.9787C74.178 40.2044 74.2156 40.4676 74.2156 40.6933C74.2532 40.9189 74.2532 41.1446 74.2908 41.4078C74.3284 41.8591 74.366 42.3104 74.366 42.7617C74.366 42.9873 74.366 43.213 74.366 43.401C74.366 43.5138 74.366 43.6267 74.366 43.7019C74.366 43.7771 74.366 43.8899 74.366 43.9651C74.366 44.3036 74.3284 44.6044 74.2908 44.8677C74.2532 45.4318 74.178 45.8831 74.1404 46.184C73.9523 47.2746 73.7643 48.1395 73.5011 48.9293C73.2754 49.7943 72.9746 50.5464 72.5609 51.3738Z" fill="#B2B0B2"/>
<path d="M67.4056 45.3514C67.8569 44.5241 68.1578 43.96 68.4962 42.8693C68.5338 42.7189 68.6091 42.4933 68.6467 42.23C68.6843 42.0796 68.7219 41.9292 68.7219 41.7787L68.7595 41.6283L68.7971 41.4027C68.8347 41.2522 68.8347 41.1018 68.8347 40.989C68.8723 40.6881 68.8723 40.3873 68.9099 40.0864C68.9475 38.8454 68.7971 37.4915 68.3834 36.1752C67.9697 34.859 67.2552 33.5803 66.3526 32.4897C65.45 31.3991 64.3218 30.5342 63.1936 29.97C62.0654 29.4059 60.8996 29.1051 59.8842 28.9923C58.8688 28.917 58.079 28.9546 57.5149 29.0675C56.9508 29.1427 56.6499 29.2179 56.6499 29.2179C56.6499 29.2179 56.5747 29.2555 56.4243 29.2555C56.2739 29.2931 56.0482 29.3307 55.785 29.4435C55.5217 29.5188 55.1833 29.6316 54.8072 29.8196C54.4311 29.97 54.055 30.1957 53.6038 30.4589C52.7764 30.9854 51.8738 31.7752 51.1217 32.8282C50.3695 33.8436 49.7678 35.1222 49.4669 36.4761C49.1285 37.83 49.0533 39.259 49.1661 40.6505C49.2037 40.989 49.2413 41.3274 49.2789 41.6659C49.3541 42.0044 49.3917 42.3428 49.4669 42.6437C49.5422 42.9446 49.6174 43.283 49.7302 43.5839C49.7678 43.7343 49.843 43.8847 49.8806 44.0352C49.9182 44.1104 49.9182 44.1856 49.9558 44.2608L50.0311 44.4489C50.2943 45.1634 50.5952 45.6899 50.7456 45.9531C51.3097 46.9309 51.7234 47.4198 52.2875 48.172C51.7234 47.4198 51.3849 46.8557 50.896 45.8779C50.7832 45.6147 50.52 45.0506 50.2943 44.336L50.2191 44.148C50.1815 44.0728 50.1815 43.9976 50.1439 43.9224C50.1063 43.7719 50.0687 43.6215 50.0311 43.4711C49.9558 43.1702 49.8806 42.8693 49.8054 42.5309C49.7678 42.23 49.6926 41.8916 49.655 41.5531C49.6174 41.2146 49.6174 40.9138 49.5798 40.5753C49.5422 39.259 49.655 37.8676 50.0311 36.5889C50.3695 35.3103 50.9712 34.1068 51.6858 33.1667C52.4003 32.2265 53.2277 31.5119 54.0174 31.0231C54.4311 30.7974 54.7696 30.5718 55.1456 30.4589C55.4841 30.3085 55.785 30.1957 56.0482 30.1205C56.3115 30.0453 56.4995 29.97 56.6499 29.97C56.8004 29.9324 56.8756 29.9324 56.8756 29.9324C56.8756 29.9324 57.1764 29.8572 57.7029 29.782C58.2294 29.7068 58.9816 29.6692 59.9218 29.7068C60.8243 29.8196 61.915 30.0453 62.968 30.5718C64.021 31.0983 65.074 31.888 65.9389 32.8658C66.8039 33.8436 67.5184 35.047 67.9697 36.2881C68.421 37.5291 68.6091 38.8454 68.6467 40.0112C68.6467 40.3121 68.6467 40.6129 68.6091 40.8762C68.6091 41.0266 68.6091 41.1394 68.5714 41.2898L68.5338 41.4779L68.4962 41.6283C68.4962 41.7787 68.4586 41.9292 68.421 42.0796C68.3834 42.3428 68.3458 42.5685 68.3082 42.7189C68.0073 43.8847 67.8193 44.5241 67.4056 45.3514Z" fill="#D6163F"/>
<path d="M25.8481 72.018C25.5472 71.3786 25.2463 70.7769 24.9831 70.1752C24.7198 69.5735 24.4566 69.047 24.1933 68.4829C23.6668 67.3547 23.0275 66.2264 22.2378 64.7974C22.0121 64.4213 21.7113 63.8196 21.3352 63.0674C21.1471 62.6914 20.9215 62.2777 20.7335 61.8264C20.583 61.5255 20.4326 61.1871 20.3198 60.8862C20.1317 60.4725 19.9813 60.0212 19.7933 59.6076C19.7181 59.3819 19.6052 59.1563 19.53 58.9682C19.4548 58.7426 19.3796 58.5169 19.3044 58.2913C19.154 57.84 18.9659 57.3887 18.8531 56.9374C18.289 55.0947 17.8377 53.1767 17.4992 51.1835C17.424 50.6946 17.3112 50.1681 17.2736 49.6792C17.1984 49.1903 17.1608 48.6638 17.0856 48.1373C17.0103 47.1219 16.9351 46.0689 16.9351 45.0159C16.8975 42.9099 17.0103 40.7663 17.3112 38.6227C17.8753 34.2978 19.1916 29.973 21.1471 25.9114C23.1403 21.8498 25.8105 18.0139 29.0447 14.7421C32.2789 11.4702 36.0396 8.68728 40.1012 6.61888C42.132 5.60349 44.238 4.70091 46.3816 4.02398C48.5253 3.34705 50.7065 2.85815 52.8877 2.51969C55.0689 2.21883 57.2501 2.0684 59.3562 2.03079C61.4998 2.03079 63.6058 2.21883 65.6366 2.51969C67.6674 2.85815 69.6606 3.27183 71.5409 3.83594C73.4213 4.43766 75.2264 5.07698 76.9188 5.86674C80.3034 7.40864 83.2744 9.32661 85.7565 11.3574C88.2762 13.3506 90.307 15.4942 91.9617 17.4874C93.6164 19.4806 94.8198 21.3609 95.76 22.9404C95.9857 23.3541 96.2113 23.7302 96.3993 24.0687C96.5874 24.4447 96.7754 24.7832 96.9258 25.0841C97.0763 25.3849 97.2267 25.6858 97.3771 25.949C97.49 26.2123 97.6028 26.4755 97.7156 26.7012C97.9036 27.1525 98.0541 27.4909 98.1669 27.7166C98.2045 27.8294 98.2421 27.9046 98.2797 27.9798C98.3173 28.055 98.3173 28.055 98.3173 28.055C98.3173 28.055 98.5053 28.5439 98.8814 29.4465C99.2199 30.3491 99.7088 31.7406 100.16 33.5081C100.611 35.2756 101.1 37.4945 101.364 40.0518C101.627 42.6091 101.664 45.58 101.326 48.7767C101.251 49.5664 101.1 50.3938 100.987 51.2211C100.837 52.0485 100.649 52.8759 100.499 53.7408C100.273 54.5682 100.085 55.4332 99.8216 56.2981C99.6712 56.7118 99.5583 57.1631 99.4079 57.6144C99.3327 57.84 99.2575 58.0657 99.1823 58.2537C99.1071 58.4793 99.0319 58.705 98.919 58.893C97.6404 62.3905 95.7976 65.9256 93.3531 69.235C92.7514 70.1 92.0745 70.8897 91.4352 71.6795C91.0967 72.0932 90.7206 72.4693 90.3822 72.8453L89.8557 73.447C89.6676 73.6351 89.4796 73.8231 89.2916 74.0112C88.9155 74.3872 88.5394 74.7633 88.1633 75.1394C87.7497 75.4778 87.3736 75.8539 86.9599 76.1924C86.7719 76.3804 86.5462 76.5684 86.3582 76.7189L85.7189 77.2078C85.2676 77.5462 84.8163 77.8471 84.365 78.1856C82.5599 79.4642 80.6795 80.7052 78.7239 81.9087C77.7461 82.4728 76.7683 83.0745 75.7529 83.601C74.7375 84.1651 73.7221 84.6916 72.6691 85.2557C71.6537 85.8198 70.6007 86.3839 69.5477 86.9481C68.5323 87.5122 67.4793 88.1139 66.4639 88.7156L64.922 89.6182L64.1323 90.0695L63.3801 90.5208L60.3339 92.4011C56.31 94.9584 52.3988 97.6285 48.6757 100.524C47.7731 101.239 46.8705 101.991 45.9304 102.743C45.0278 103.495 44.1628 104.285 43.2978 105.037C41.6055 106.617 39.9508 108.234 38.4465 109.964C38.0704 110.415 37.732 110.829 37.3559 111.28C37.0174 111.731 36.6413 112.183 36.3405 112.671C36.1901 112.897 36.002 113.16 35.8516 113.424L35.7764 113.536C36.679 113.875 33.708 112.859 37.8072 114.326V114.289L37.8448 114.101L37.92 113.724C38.0328 113.198 38.1456 112.671 38.2585 112.183C38.5217 111.167 38.785 110.152 39.0858 109.136C39.2363 108.647 39.3867 108.159 39.5371 107.67C39.6123 107.444 39.6875 107.181 39.8004 106.955L39.9884 106.466C40.1764 105.94 40.3645 105.488 40.5525 105.037C40.5901 104.924 40.6277 104.812 40.7029 104.699L40.7782 104.511C40.8158 104.398 40.891 104.285 40.9286 104.172C41.1542 103.759 41.3799 103.307 41.5679 102.931C41.9816 102.141 42.3577 101.427 42.6961 100.825C42.8842 100.6 42.6209 100.712 42.5081 100.712C42.3577 100.75 42.2448 100.75 42.0944 100.788C41.8312 100.825 41.6055 100.863 41.4175 100.9C41.0414 100.976 40.7029 101.013 40.3269 101.088C39.9508 101.164 39.6123 101.239 39.2363 101.352C38.8602 101.464 38.5217 101.54 38.1833 101.653L37.9952 101.728L37.8448 101.765C37.7696 101.803 37.6567 101.841 37.5815 101.878C36.9046 102.141 36.3029 102.442 35.7388 102.781C34.6106 103.458 33.6328 104.285 32.6926 105.413C34.0464 104.887 35.1747 104.586 36.3781 104.285C36.9798 104.135 37.5815 103.984 38.2209 103.834C38.2961 103.796 38.3713 103.796 38.4841 103.759L38.5969 103.721C38.6345 103.721 38.7098 103.683 38.6721 103.721C38.6721 103.721 38.6721 103.721 38.6721 103.759V103.796L38.5969 103.947C38.5593 104.059 38.4841 104.172 38.4465 104.285C38.2585 104.774 38.0328 105.263 37.8448 105.827L37.6567 106.353C37.5815 106.617 37.4687 106.842 37.3935 107.106C37.2055 107.632 37.055 108.121 36.9046 108.647C36.6037 109.7 36.3029 110.716 36.0772 111.806C35.9644 112.333 35.814 112.859 35.7012 113.424L35.626 113.837L35.5883 114.063V114.101C39.6875 115.605 36.7542 114.514 37.6567 114.815L37.6944 114.74C37.8072 114.552 37.9576 114.326 38.108 114.101C38.4089 113.687 38.7474 113.273 39.0482 112.822C39.3867 112.408 39.7252 111.995 40.0636 111.581C41.4927 109.926 43.0722 108.384 44.7269 106.842C45.5919 106.09 46.4192 105.338 47.2842 104.586C48.1868 103.871 49.0518 103.119 49.9543 102.405C53.5646 99.5465 57.4382 96.914 61.4246 94.3943L64.4331 92.5515L65.1853 92.1003L65.9374 91.649L67.4793 90.784C68.4947 90.1823 69.5101 89.6182 70.5255 89.0165C71.5409 88.4524 72.5939 87.8882 73.6093 87.3617C74.6247 86.7976 75.6777 86.2335 76.6931 85.707C77.7461 85.1429 78.7615 84.5788 79.7393 83.9771C81.7325 82.7737 83.6881 81.495 85.5308 80.1787C85.9821 79.8403 86.471 79.5018 86.9223 79.1633L87.5992 78.6368C87.8625 78.4488 88.0505 78.2608 88.2762 78.0727C88.6898 77.6967 89.1411 77.3206 89.5548 76.9445C89.9685 76.5308 90.3446 76.1548 90.7582 75.7411C90.9463 75.5531 91.1719 75.365 91.36 75.1394L91.9241 74.5377C92.3001 74.124 92.6762 73.7103 93.0147 73.2966C93.7292 72.4316 94.4062 71.6043 95.0455 70.7017C97.6404 67.2042 99.5207 63.4811 100.875 59.7956C100.95 59.57 101.063 59.3443 101.138 59.1187C101.213 58.893 101.288 58.6674 101.364 58.4417C101.514 57.9904 101.664 57.5392 101.815 57.0879C102.078 56.1853 102.304 55.2827 102.529 54.3801C102.717 53.4776 102.905 52.6126 103.056 51.7476C103.169 50.8827 103.319 50.0177 103.394 49.1903C103.733 45.8433 103.695 42.7219 103.432 40.0142C103.169 37.3064 102.642 35.0124 102.191 33.132C101.702 31.2517 101.175 29.8226 100.837 28.8824C100.461 27.9422 100.273 27.4157 100.273 27.4157C100.273 27.4157 100.273 27.3781 100.235 27.3029C100.198 27.2277 100.16 27.1525 100.122 27.0396C100.01 26.814 99.8592 26.4379 99.6336 25.9866C99.5207 25.761 99.4079 25.4977 99.2951 25.1969C99.1447 24.896 98.9942 24.5952 98.8062 24.2567C98.6182 23.9182 98.4677 23.5798 98.2421 23.1661C98.0164 22.79 97.7908 22.4139 97.5652 21.9627C96.5874 20.3079 95.3087 18.3148 93.5412 16.2087C91.8112 14.1027 89.6676 11.8839 87.0351 9.7779C84.4026 7.67189 81.2812 5.64109 77.7085 4.02398C75.941 3.19662 74.023 2.48208 72.0674 1.88036C70.0742 1.27865 68.0058 0.82736 65.8622 0.488895C63.7186 0.188037 61.4998 0 59.2433 0C56.9869 0 54.7305 0.150429 52.4364 0.488895C50.1424 0.864968 47.8483 1.39147 45.5919 2.10601C43.3354 2.82055 41.1166 3.76073 38.973 4.81373C34.6858 6.95735 30.737 9.89072 27.3524 13.3506C24.0805 16.5848 21.26 20.6088 19.1916 24.896C17.1232 29.1833 15.7693 33.7713 15.1676 38.2842C14.8291 40.5407 14.7539 42.7971 14.7539 45.0159C14.7539 46.1065 14.8291 47.2348 14.9043 48.2878C14.9796 48.8143 15.0172 49.3784 15.0924 49.9049C15.13 50.4314 15.2428 50.9579 15.318 51.4844C15.6565 53.5904 16.1454 55.6212 16.7471 57.5392C16.8975 58.028 17.0856 58.4793 17.236 58.9682C17.3112 59.1939 17.3864 59.4571 17.4616 59.6828C17.5368 59.9084 17.6497 60.1341 17.7249 60.3597C17.9129 60.811 18.0633 61.2623 18.289 61.7136C18.4394 62.052 18.5899 62.3905 18.7403 62.729C18.9283 63.2179 19.154 63.6315 19.342 64.0076C19.7181 64.7974 20.0565 65.3991 20.2822 65.8128C21.1095 67.3171 21.9745 68.4077 22.8395 69.3855C23.2908 69.8743 23.7421 70.288 24.2309 70.7017C24.7574 71.153 25.2839 71.5667 25.8481 72.018Z" fill="#4E4D4F"/>
<path d="M52.4379 80.2149C51.3097 79.3123 50.3695 78.5225 49.3541 77.808C48.3387 77.0559 47.2481 76.3413 45.8566 75.4763C45.4806 75.2507 44.9164 74.8746 44.2019 74.4233C43.8634 74.1977 43.4874 73.9344 43.0737 73.6712C42.848 73.5208 42.5848 73.3327 42.3591 73.1447C42.0583 72.919 41.7198 72.6934 41.419 72.4302C40.8172 71.9413 40.1779 71.4524 39.5762 70.9259C38.3352 69.8729 37.1317 68.7446 36.0035 67.5412C33.7095 65.0967 31.6411 62.201 30.0616 58.9667C28.5197 55.7325 27.4667 52.1222 27.053 48.3615C26.8649 46.4811 26.7521 44.5631 26.8649 42.6828C26.9778 40.7648 27.2034 38.8844 27.6547 37.0417C28.0684 35.1613 28.6701 33.3562 29.3846 31.5886C30.1368 29.8211 31.0394 28.1664 32.0548 26.5493C34.1232 23.3902 36.7181 20.6073 39.6138 18.3885C42.5096 16.1696 45.7062 14.5149 48.9404 13.4243C50.5575 12.8978 52.1747 12.4465 53.7918 12.1833C55.4089 11.92 56.9884 11.732 58.5303 11.732C61.6141 11.6568 64.5098 12.0328 67.1047 12.6722C69.6997 13.3115 71.9561 14.2141 73.8741 15.1919C75.792 16.1696 77.3715 17.185 78.575 18.0876C78.8758 18.3133 79.1767 18.5389 79.4399 18.7645C79.7032 18.9902 79.9664 19.1782 80.1921 19.3663C80.6434 19.7423 81.0194 20.0808 81.3203 20.3441C81.922 20.9082 82.2229 21.209 82.2229 21.209C82.2229 21.209 82.2981 21.2842 82.4485 21.4347C82.5989 21.5851 82.8246 21.8107 83.0878 22.1116C83.652 22.7133 84.4417 23.6159 85.3443 24.8193C86.2469 26.0604 87.2999 27.6023 88.24 29.5202C89.2178 31.4382 90.1204 33.6946 90.7973 36.2895C90.9478 36.9289 91.1358 37.6058 91.211 38.2827C91.2862 38.6212 91.3238 38.9597 91.3991 39.3357C91.4367 39.6742 91.4743 40.0503 91.5495 40.3887C91.6623 41.1033 91.6623 41.8554 91.7375 42.57C91.7375 42.946 91.7751 43.3221 91.7751 43.6982C91.7751 43.8862 91.7751 44.0743 91.7751 44.2623C91.7751 44.4503 91.7751 44.6384 91.7751 44.8264C91.7375 47.9102 91.211 51.182 90.158 54.4539C89.105 57.6881 87.4503 60.9223 85.2691 63.8181C84.9682 64.1942 84.705 64.5326 84.4041 64.9087C84.1409 65.2472 83.84 65.5856 83.5015 65.8865C82.8622 66.5258 82.1853 67.2027 81.4707 67.8045C80.0793 69.0455 78.5374 70.2113 76.9955 71.3019C76.2057 71.866 75.416 72.3925 74.5886 72.9191C73.7612 73.4079 72.9339 73.9721 72.1065 74.4233L70.8655 75.1755L69.5868 75.89L66.9919 77.3191C63.4944 79.1995 60.0722 81.1926 56.7251 83.2234C55.0704 84.2765 53.4157 85.2542 51.7986 86.3449C51.0088 86.8714 50.2191 87.3979 49.3917 87.9244C48.602 88.4509 47.8498 89.015 47.0601 89.5415C45.5182 90.5945 44.0515 91.7603 42.5848 92.8509C41.8703 93.415 41.1557 93.9791 40.4788 94.5432C40.1403 94.8441 39.8019 95.1074 39.4258 95.3706C39.1249 95.6339 38.8617 95.8595 38.5984 96.1227C37.7335 96.8749 36.9813 97.5518 36.342 98.1535C35.7027 98.7553 35.2138 99.2066 34.8753 99.545C34.2736 100.147 33.7471 100.711 33.2958 101.275C32.8445 101.839 32.4308 102.366 32.0924 102.892C31.7539 103.456 31.4154 103.983 31.1522 104.584C31.0017 104.885 30.8513 105.186 30.7385 105.487C30.5881 105.788 30.4752 106.126 30.3624 106.465C30.6257 106.201 30.8889 105.976 31.1146 105.75C31.3778 105.525 31.6035 105.337 31.8667 105.111C32.3556 104.697 32.8445 104.321 33.2958 103.907C33.7471 103.494 34.2736 103.08 34.7625 102.629C35.2514 102.178 35.8155 101.651 36.4172 101.087C36.7181 100.748 37.2446 100.297 37.8463 99.7331C38.448 99.1313 39.2001 98.492 40.0275 97.7775C40.2907 97.5518 40.5916 97.2886 40.8549 97.0629C41.1933 96.7997 41.5318 96.4988 41.8703 96.2356C42.5472 95.6715 43.2241 95.1074 43.9387 94.5808C45.3677 93.4902 46.7968 92.3996 48.3387 91.3466C49.0909 90.8201 49.843 90.256 50.6328 89.7295C51.4225 89.203 52.2123 88.6765 53.002 88.15C54.5815 87.0594 56.2362 86.1192 57.8534 85.0662C61.1628 83.0354 64.5475 81.0798 68.0073 79.2371L70.6022 77.808L71.9185 77.0935L73.1971 76.3413C74.0621 75.8524 74.8895 75.2883 75.7544 74.7618C76.5818 74.1977 77.4091 73.6712 78.2365 73.1071C79.8536 71.9789 81.4331 70.7378 82.8998 69.4592C83.652 68.8199 84.3665 68.1429 85.0434 67.4284C85.3819 67.0523 85.7204 66.7138 86.0588 66.3002C86.3597 65.9241 86.6605 65.548 86.9614 65.1343C89.2931 62.0129 91.0606 58.5907 92.1888 55.1308C93.317 51.6709 93.8811 48.1735 93.9187 44.864C93.9187 44.676 93.9187 44.4503 93.9187 44.2623C93.9187 44.0743 93.9187 43.8486 93.9187 43.6606C93.9187 43.2469 93.8811 42.8708 93.8811 42.4571C93.8059 41.6674 93.7683 40.8776 93.6555 40.1255C93.6179 39.7494 93.5427 39.3733 93.5051 38.9973C93.4299 38.6212 93.3546 38.2451 93.317 37.9067C93.2042 37.1545 93.0162 36.4776 92.8657 35.763C92.1512 33.0177 91.1734 30.5732 90.1204 28.5424C89.0674 26.5116 87.9768 24.8569 86.999 23.5407C86.0212 22.262 85.1562 21.2842 84.5921 20.6449C84.2913 20.3441 84.0656 20.0808 83.9152 19.9304C83.7648 19.7799 83.6896 19.7047 83.6896 19.7047C83.6896 19.7047 83.3511 19.4039 82.7494 18.8022C82.4485 18.5013 82.0348 18.1628 81.5459 17.7491C81.3203 17.5235 81.0571 17.3355 80.7562 17.1098C80.4553 16.8842 80.1921 16.6585 79.8536 16.3953C78.5374 15.4175 76.8826 14.3269 74.8142 13.3115C72.7834 12.2961 70.339 11.3183 67.5936 10.6414C64.8483 9.96444 61.7269 9.55076 58.4175 9.62597C56.7627 9.66358 55.0704 9.81401 53.3405 10.1149C51.6105 10.3781 49.8806 10.8294 48.1507 11.4311C44.6908 12.5593 41.2685 14.3645 38.1847 16.7338C35.0633 19.103 32.318 22.074 30.0992 25.421C29.0086 27.1134 28.0308 28.9185 27.241 30.7989C26.4513 32.6792 25.8119 34.6348 25.3607 36.628C24.9094 38.6212 24.6461 40.652 24.5333 42.6828C24.4205 44.7136 24.5333 46.7068 24.7213 48.7C25.1726 52.6863 26.2632 56.5599 27.9556 60.0197C29.6479 63.4796 31.8291 66.5634 34.2736 69.1583C35.477 70.437 36.7557 71.6404 38.0719 72.731C38.7112 73.2951 39.3506 73.784 40.0275 74.2729C40.366 74.4986 40.6668 74.7618 41.0053 74.9874C41.2685 75.1755 41.4942 75.3259 41.7574 75.514C42.1711 75.8148 42.5848 76.0781 42.9233 76.3037C43.6378 76.7926 44.2395 77.1687 44.6532 77.3943C46.1199 78.2969 47.3609 78.861 48.5644 79.2747C49.8054 79.6508 51.0088 79.9516 52.4379 80.2149Z" fill="#D6163F"/>
<path d="M87.7125 70.5141C89.3296 69.4235 90.6083 68.4081 91.8117 67.1294C92.9775 65.8508 94.1058 64.3841 95.1588 62.2781C95.422 61.714 95.8733 60.849 96.3246 59.7584C96.5502 59.2319 96.7759 58.6302 97.0391 57.9532L97.152 57.6524C97.2272 57.4644 97.3024 57.2763 97.34 57.0883C97.4528 56.7122 97.5656 56.3361 97.6785 55.9601C97.7913 55.584 97.9041 55.2079 98.0169 54.8318C98.1298 54.4558 98.2426 54.0421 98.3178 53.666C98.4682 52.8763 98.6939 52.0865 98.8067 51.2591C98.8819 50.8455 98.9571 50.4318 99.0323 50.0181C99.0699 49.6044 99.1451 49.1908 99.1827 48.7771L99.258 48.1377L99.2956 47.4984C99.3332 47.0847 99.3708 46.6335 99.3708 46.2198C99.3708 45.7685 99.4084 45.3548 99.4084 44.9035V44.2266V43.5497C99.4084 43.0984 99.3708 42.6471 99.3708 42.2334C99.3332 41.7821 99.2956 41.3308 99.258 40.8795C99.2204 39.977 99.0699 39.0744 98.9571 38.1718C98.393 34.5615 97.34 30.9136 95.7605 27.4537C94.9707 25.7238 94.0682 24.0315 92.9775 22.4144C91.9245 20.7972 90.7587 19.2553 89.4801 17.7887C88.2014 16.322 86.8476 14.9681 85.3809 13.6895C83.9142 12.4484 82.3723 11.2826 80.7552 10.2672C74.2867 6.1304 66.7653 4.09961 59.8455 4.02439C56.3857 3.94918 53.0762 4.36286 50.03 5.07739C46.9838 5.79193 44.2009 6.80733 41.7564 8.01076C36.8675 10.38 33.4452 13.2758 31.2264 15.4194C30.1358 16.51 29.3084 17.4126 28.7819 18.0143C28.2554 18.616 27.9921 18.9921 27.9921 18.9921C27.9921 18.9921 27.7289 19.3306 27.2024 19.9699C26.7135 20.6468 25.999 21.587 25.1716 22.9033C24.946 23.2417 24.7579 23.5802 24.5323 23.9563C24.3066 24.3323 24.081 24.7084 23.8553 25.1221C23.4417 25.9494 22.9528 26.852 22.5391 27.8674C21.6741 29.8606 20.8092 32.1923 20.1698 34.7872C19.5305 37.4197 19.1168 40.353 19.0792 43.4744C19.0416 44.2642 19.0792 45.0163 19.0792 45.8061C19.0792 46.5958 19.1168 47.4232 19.192 48.2506C19.3425 49.9429 19.6433 51.6352 20.0946 53.3275C20.5459 55.0199 21.11 56.6746 21.7117 58.3293C21.8622 58.743 22.0126 59.1567 22.2006 59.5704C22.3887 59.984 22.5391 60.3977 22.7271 60.849C22.9152 61.2627 23.1032 61.6764 23.2912 62.09L23.5921 62.7294L23.9306 63.3311C25.6229 66.6029 27.8417 69.6867 30.3614 72.5449C32.8811 75.403 35.7769 77.9603 38.9735 80.1415C40.553 81.2322 42.2077 82.2099 43.9 83.1125C44.765 83.5638 45.63 83.9399 46.4949 84.3536C47.3223 84.7296 48.1873 85.1057 49.0146 85.4818C52.3617 86.9861 55.5959 88.4904 58.6797 90.1075C59.4318 90.5212 60.2216 90.8972 60.9737 91.3109C61.7259 91.7246 62.478 92.1383 63.1926 92.552C63.9071 92.9656 64.6216 93.3793 65.2986 93.8306C65.637 94.0562 65.9755 94.2819 66.314 94.5075C66.502 94.6204 66.6524 94.7332 66.8029 94.846L67.1413 95.1092C67.7431 95.5229 68.3072 95.899 68.8337 96.3127C69.3602 96.6888 69.8491 97.0648 70.2627 97.4033C71.0901 98.1178 71.8046 98.6443 72.2559 99.058C72.6696 99.4341 73.0457 99.7726 73.4218 100.073C73.7978 100.412 74.1363 100.713 74.4748 101.014C75.1893 101.615 75.791 102.179 76.4303 102.706C76.5808 102.819 76.7688 102.969 76.9192 103.082L77.3705 103.496C77.6714 103.759 78.0098 104.022 78.3483 104.285C79.0252 104.812 79.6646 105.414 80.4167 106.015C80.0406 105.113 79.7022 104.285 79.3261 103.496C79.1381 103.12 78.9124 102.744 78.7244 102.367L78.4235 101.803C78.3107 101.615 78.1979 101.427 78.0851 101.277C77.5962 100.562 77.1073 99.8102 76.4679 99.0956C76.1671 98.7196 75.8286 98.3435 75.4525 97.9674C75.0765 97.5913 74.6628 97.2153 74.2491 96.8392C73.7978 96.3879 73.0457 95.8238 72.1431 95.0716C71.6918 94.7332 71.1653 94.3195 70.6388 93.9058C70.1123 93.4921 69.473 93.0785 68.8713 92.6272L68.4952 92.3639C68.3072 92.2511 68.1567 92.1383 67.9687 92.0255C67.6302 91.7998 67.2542 91.5742 66.9157 91.3485C66.2012 90.8596 65.449 90.4459 64.6969 89.9947C63.9447 89.5434 63.1926 89.1297 62.4404 88.6784C61.6883 88.2271 60.8985 87.851 60.1088 87.4374C56.9498 85.7826 53.6403 84.2407 50.2557 82.7365C49.4283 82.3604 48.5633 81.9843 47.736 81.6082C46.9462 81.2322 46.1189 80.8561 45.3291 80.4424C43.7496 79.6151 42.1701 78.6749 40.7034 77.6595C37.7324 75.5911 35.0247 73.1842 32.6178 70.5141C30.2486 67.844 28.1802 64.9106 26.6007 61.8644L26.2998 61.3003L26.0366 60.7362C25.8485 60.3601 25.6605 59.984 25.5101 59.5704C25.3596 59.1943 25.1716 58.7806 25.0212 58.4045C24.8707 57.9909 24.7203 57.6148 24.5699 57.2011C23.9682 55.6216 23.4417 54.0421 23.028 52.5002C22.6143 50.9583 22.351 49.454 22.2382 47.9497C22.163 47.1976 22.163 46.4454 22.1254 45.6933C22.1254 44.9411 22.0878 44.1514 22.1254 43.4368C22.163 40.5411 22.5767 37.8333 23.1408 35.3889C23.7049 32.9444 24.4947 30.8008 25.322 28.958C25.7357 28.0178 26.1494 27.1905 26.5631 26.4383C26.7887 26.0623 26.9767 25.6862 27.1648 25.3477C27.3528 25.0093 27.5409 24.6708 27.7665 24.3699C28.5186 23.1665 29.1956 22.2639 29.6469 21.6246C30.1358 21.0229 30.3614 20.722 30.3614 20.722C30.3614 20.722 30.587 20.3836 31.1136 19.8195C31.6024 19.2553 32.3546 18.3904 33.37 17.4126C35.4384 15.4194 38.635 12.7493 43.1479 10.5681C45.4043 9.47745 47.9616 8.53727 50.7822 7.86033C53.6027 7.22101 56.6865 6.80733 59.8831 6.88255C66.314 6.92015 73.2337 8.83812 79.2509 12.6741C80.7552 13.6143 82.1843 14.7049 83.5381 15.8707C84.892 17.0365 86.1706 18.3152 87.3365 19.669C88.5399 21.0229 89.5929 22.452 90.5707 23.9563C91.5485 25.4605 92.4134 27.0024 93.128 28.6196C94.6323 31.8162 95.5725 35.2008 96.099 38.5479C96.2118 39.3752 96.3246 40.2026 96.3622 41.0676C96.3998 41.4813 96.4374 41.8949 96.4374 42.3086C96.4374 42.7223 96.475 43.136 96.475 43.5497V44.1514V44.7531C96.475 45.1668 96.4374 45.5805 96.4374 45.9565C96.3998 46.3702 96.3622 46.7463 96.3622 47.16L96.3246 47.7617L96.2494 48.3634C96.2118 48.7395 96.1742 49.1531 96.099 49.5292C96.0237 49.9053 95.9861 50.2814 95.9109 50.6574C95.7981 51.4096 95.6101 52.1617 95.4596 52.8763C95.3844 53.2523 95.2716 53.5908 95.1588 53.9669C95.046 54.3053 94.9707 54.6814 94.8579 55.0199C94.7451 55.3583 94.6323 55.6968 94.5194 56.0353C94.4818 56.2233 94.4066 56.3737 94.3314 56.5242L94.2186 56.825C93.993 57.4267 93.8049 57.9909 93.5793 58.4797C93.1656 59.4951 92.7519 60.2849 92.5263 60.8114C91.5485 62.767 90.7587 64.2337 90.0442 65.738C89.3296 67.3551 88.6527 68.7841 87.7125 70.5141Z" fill="#AB2747"/>
<path d="M64.3232 69.2319C64.9249 67.9532 65.301 66.825 65.6771 65.6216C66.0155 64.4181 66.3164 63.1019 66.5044 61.4096C66.542 61.1839 66.542 60.8831 66.5797 60.5446C66.5797 60.2061 66.6173 59.8301 66.6173 59.3788C66.6173 58.9651 66.6173 58.4762 66.6173 57.9873V57.6112C66.6173 57.348 66.5797 57.1223 66.5797 56.8591C66.542 56.3702 66.5044 55.8437 66.4292 55.3548C66.3164 54.3394 66.1284 53.324 65.8275 52.271C65.5643 51.2556 65.1882 50.2402 64.6617 49.2624C64.1352 48.2846 63.4582 47.3444 62.5557 46.6299C61.6531 45.9154 60.4497 45.4641 59.2462 45.4265C58.6445 45.3889 58.0052 45.5017 57.4035 45.7649C56.8394 45.9906 56.3129 46.3666 55.8616 46.7803C54.959 47.6077 54.2821 48.6607 53.7556 49.7137C53.2291 50.8043 52.8154 51.9325 52.4769 53.0984C51.8 55.43 51.4615 57.8745 51.4615 60.3566C51.4991 60.9583 51.4991 61.56 51.4991 62.1993C51.4991 62.5002 51.5367 62.801 51.5367 63.1395C51.5743 63.4404 51.5743 63.7788 51.6119 64.0797C51.7248 65.3207 51.9504 66.5994 52.3265 67.8404C52.7026 69.0815 53.2667 70.2849 54.094 71.3755L54.3949 71.7892L54.7334 72.1653C54.959 72.4285 55.2222 72.6165 55.4855 72.8422C56.0496 73.2559 56.6137 73.6319 57.253 73.8952C58.5317 74.4593 59.8856 74.6473 61.2018 74.6473C62.5181 74.6473 63.8343 74.4217 65.113 74.0832C66.354 73.7448 67.595 73.3311 68.7609 72.767L70.4908 71.9396C70.6412 71.8644 70.7917 71.7892 70.9045 71.714L71.3182 71.4883L72.1455 70.9994C73.2737 70.3977 74.3268 69.6456 75.3798 68.931C76.3952 68.1413 77.4105 67.3891 78.3507 66.4865C82.1491 63.1019 85.0824 58.8147 86.9252 54.2266C87.8278 51.9325 88.4295 49.5257 88.6927 47.1188C88.956 44.7119 88.8808 42.3051 88.5799 40.011C87.903 35.4229 86.173 31.1733 83.8038 27.7134C81.4345 24.216 78.5012 21.4706 75.455 19.515C73.9507 18.5373 72.4088 17.7099 70.8669 17.0706C69.3626 16.4312 67.8583 15.9423 66.4292 15.6039C63.5711 14.8893 61.0514 14.7013 58.983 14.7389C56.9146 14.7765 55.2975 14.9646 54.2068 15.1526C53.6427 15.2278 53.2667 15.3406 52.9658 15.3782C52.7026 15.4535 52.5521 15.4535 52.5521 15.4535C52.5521 15.4535 52.4017 15.4911 52.1384 15.5663C51.8752 15.6415 51.4615 15.7167 50.935 15.9047C49.882 16.2056 48.3401 16.7321 46.4598 17.6347C45.9709 17.8603 45.5196 18.1236 44.9931 18.3868C44.5042 18.6877 43.9777 18.9509 43.4512 19.327C42.3982 20.0039 41.2699 20.7937 40.1793 21.7339C37.9605 23.6142 35.7041 26.0963 33.8237 29.2177C31.9809 32.3391 30.5519 36.0999 29.9501 40.2743C29.7997 41.3273 29.7245 42.3803 29.7245 43.4709C29.6869 44.5615 29.7245 45.6521 29.8749 46.7803C29.9878 47.8709 30.1758 48.9992 30.4014 50.0898C30.6271 51.1804 30.8903 52.3086 31.2664 53.3992C31.9809 55.5804 32.8835 57.7617 34.0493 59.8677C35.2152 61.9737 36.6442 63.9669 38.3366 65.772C39.9913 67.5396 41.8341 69.2319 43.7896 70.7738C45.7452 72.3157 47.8888 73.6695 50.1077 74.873C51.2359 75.4747 52.3641 76.0012 53.5299 76.5277C54.6581 77.0542 55.7864 77.5807 56.9146 78.1072C59.2086 79.1226 61.3898 80.2884 63.6087 81.4166C68.0087 83.7859 72.3336 86.268 76.3199 89.0885C80.3063 91.9091 84.0294 95.1057 86.9628 98.716C87.6773 99.6562 88.3543 100.559 88.8808 101.574L89.0688 101.913L89.1064 101.988C89.144 102.063 89.1064 102.025 89.1064 102.025L89.0312 101.95L88.6551 101.725C87.6773 101.123 86.6619 100.559 85.6465 100.07C85.3833 99.957 85.12 99.8442 84.8568 99.7314C84.5935 99.6186 84.3303 99.5057 84.067 99.4305C83.8038 99.3553 83.5405 99.2425 83.2773 99.1673C83.1269 99.1297 83.014 99.0921 82.8636 99.0545L82.7132 99.0169C81.6226 98.6784 80.6072 98.528 79.7422 98.4151C79.5166 98.4151 79.2909 98.3775 79.0653 98.3775C78.8772 98.3775 78.6892 98.3399 78.5388 98.3399C78.4636 98.3399 78.3883 98.3399 78.3131 98.3399H78.2003H78.1627C78.1627 98.3399 78.2003 98.3399 78.2003 98.3775L78.2755 98.4528C78.3883 98.528 78.4636 98.6032 78.5764 98.6784C78.6892 98.7536 78.7644 98.8288 78.8396 98.8664C78.9148 98.904 78.9524 98.9793 78.9901 99.0169C79.0277 99.0545 79.0277 99.0545 79.0653 99.0921C79.1405 99.2049 79.2533 99.2801 79.3285 99.3553C79.855 99.9947 80.2311 100.634 80.532 101.273C80.8328 101.913 81.0585 102.514 81.2089 103.116C81.5474 104.319 81.773 105.485 81.8858 106.914C81.773 105.523 81.585 104.319 81.2841 103.116C81.1337 102.514 80.9456 101.875 80.6824 101.236C80.4191 100.596 80.0807 99.8818 79.5542 99.2049C79.479 99.0921 79.4037 99.0169 79.2909 98.904C79.2533 98.8664 79.2533 98.8664 79.2157 98.8288C79.3661 98.8288 79.5542 98.8664 79.7422 98.8664C80.5696 99.0169 81.5474 99.1673 82.6004 99.5434L82.7508 99.581C82.8636 99.6186 83.014 99.6562 83.1269 99.7314C83.3901 99.8442 83.6534 99.9194 83.879 100.032C84.3679 100.258 84.8944 100.484 85.3833 100.709C86.3611 101.198 87.3389 101.762 88.2791 102.402L88.6175 102.627L88.6927 102.702C88.768 102.74 88.8056 102.815 88.8808 102.853L89.2568 103.116L89.6329 103.379L90.0466 103.718L90.4603 104.056C90.4979 104.094 90.4603 104.056 90.4603 104.019L90.4227 103.943L90.3851 103.831C90.2346 103.379 90.1594 102.966 89.9338 102.477L89.6329 101.8C89.5953 101.725 89.5953 101.725 89.5577 101.687L89.5201 101.574L89.4073 101.386C88.8808 100.333 88.1662 99.3553 87.4893 98.3775C84.5559 94.5792 80.8704 91.2698 76.884 88.2988C72.8977 85.3278 68.5728 82.7329 64.1728 80.2884C61.9539 79.1226 59.7351 77.8816 57.4411 76.8286C56.3129 76.2644 55.1846 75.7379 54.0564 75.1738C52.9282 74.6473 51.8376 74.1208 50.7846 73.5191C48.641 72.3533 46.6478 70.9994 44.7674 69.4951C42.8871 67.9908 41.1571 66.3737 39.5776 64.6062C36.4186 61.2215 34.3126 57.0847 33.0339 52.9103C32.6955 51.8949 32.4698 50.8419 32.2818 49.7889C32.0938 48.7359 31.9057 47.6829 31.8305 46.6675C31.7177 45.6521 31.7177 44.6367 31.7177 43.6213C31.7553 42.6059 31.8305 41.6281 31.9433 40.6503C32.5074 36.7768 33.8613 33.2793 35.5912 30.4212C37.3212 27.5254 39.4272 25.2313 41.4956 23.5014C42.5486 22.6364 43.564 21.8843 44.5418 21.2826C45.0307 20.9441 45.5196 20.6809 45.9709 20.4176C46.4597 20.192 46.8734 19.9287 47.3247 19.7407C49.0546 18.9133 50.4837 18.4244 51.4615 18.1612C51.9504 18.0108 52.3265 17.9355 52.5897 17.8603C52.853 17.7851 52.9658 17.7475 52.9658 17.7475C52.9658 17.7475 53.1162 17.7099 53.3419 17.6723C53.6051 17.6347 53.9812 17.5219 54.4701 17.4466C55.4855 17.2586 56.9898 17.0706 58.9078 17.033C60.8257 16.9954 63.195 17.1834 65.8275 17.8227C67.1438 18.1612 68.4976 18.6125 69.9267 19.1766C71.3182 19.7783 72.7472 20.5304 74.1763 21.433C76.9969 23.2758 79.7422 25.7955 81.961 29.0297C84.1799 32.2639 85.797 36.1751 86.4739 40.4247C86.7748 42.5683 86.8876 44.7871 86.6243 47.006C86.3987 49.2248 85.8722 51.4436 85.0072 53.6249C83.3149 57.9497 80.6072 62.0113 77.0345 65.2831C76.1695 66.1481 75.1917 66.8626 74.2515 67.6148C73.2361 68.2917 72.2583 69.0438 71.2053 69.6456L70.4156 70.0969L70.0395 70.3225C69.8891 70.3977 69.7763 70.4729 69.6258 70.5481L67.9711 71.3755C66.8805 71.902 65.7523 72.3157 64.5865 72.6541C63.4206 72.9926 62.2548 73.1806 61.089 73.2183C59.9232 73.2183 58.7573 73.1054 57.7043 72.6541C57.1778 72.4661 56.6889 72.1652 56.2376 71.8268C56.012 71.6387 55.7864 71.4883 55.5983 71.2627L55.2975 70.9618L55.0342 70.6234C54.3197 69.7584 53.7932 68.6678 53.4547 67.5772C53.0786 66.4489 52.853 65.2831 52.7402 64.1173C52.7026 63.8164 52.7026 63.5156 52.665 63.2147C52.6273 62.9139 52.5897 62.613 52.5897 62.3121C52.5521 61.7104 52.5521 61.1087 52.5145 60.507C52.4393 58.1753 52.7402 55.8061 53.3419 53.5496C53.6427 52.4214 54.0188 51.3308 54.5077 50.3154C54.9966 49.3 55.5983 48.3598 56.3505 47.6077C57.1026 46.8555 58.0804 46.4043 59.0958 46.4419C60.1488 46.4419 61.1642 46.7803 61.954 47.4197C62.7813 48.0214 63.4206 48.8863 63.9471 49.7889C64.4736 50.6915 64.8497 51.6693 65.1506 52.6471C65.4514 53.6249 65.6771 54.6403 65.8275 55.618C65.9027 56.1069 65.9779 56.5958 66.0155 57.1223C66.0532 57.3856 66.0532 57.6112 66.0908 57.8745L66.1284 58.2506C66.166 58.7394 66.166 59.2283 66.2036 59.642C66.2036 60.0557 66.2036 60.4318 66.2036 60.7702C66.2036 61.1087 66.166 61.372 66.166 61.5976C66.0531 63.2899 65.7899 64.5686 65.5266 65.8096C65.2634 66.7874 64.9249 67.9532 64.3232 69.2319Z" fill="#B2B0B2"/>
<path d="M17.9149 127.341C17.9149 127.303 17.9525 127.265 18.0278 127.228C18.103 127.19 18.1406 127.19 18.2158 127.19C18.291 127.19 18.3286 127.228 18.3662 127.265C18.4038 127.303 18.4038 127.341 18.4038 127.416C18.103 128.582 17.6141 129.785 16.8619 131.026C16.1474 132.229 15.2824 133.358 14.3046 134.373C13.3268 135.389 12.2362 136.178 11.0328 136.818C9.82936 137.457 8.62593 137.758 7.4225 137.758C6.06863 137.758 4.94042 137.495 4.00023 137.006C3.06005 136.517 2.30791 135.84 1.7438 135.012C1.17969 134.185 0.766006 133.207 0.540363 132.079C0.314719 130.951 0.201897 129.785 0.277112 128.506C0.352326 127.265 0.540362 125.987 0.878828 124.633C1.21729 123.317 1.63097 122.038 2.19508 120.797C2.72159 119.556 3.36091 118.39 4.11306 117.262C4.8652 116.171 5.65495 115.193 6.55753 114.366C7.4601 113.539 8.40029 112.899 9.37808 112.448C10.3935 111.997 11.4089 111.771 12.4995 111.809C13.3268 111.846 14.0038 112.11 14.4927 112.561C15.0192 113.012 15.3952 113.614 15.6585 114.328C15.9217 115.043 16.0722 115.833 16.0722 116.698C16.1098 117.563 16.0722 118.39 15.9217 119.255C15.8089 120.082 15.6209 120.872 15.3576 121.549C15.0944 122.264 14.7935 122.79 14.4551 123.204C14.2294 123.467 14.0414 123.655 13.8533 123.73C13.6653 123.843 13.5149 123.881 13.4021 123.843C13.2892 123.805 13.214 123.73 13.1388 123.617C13.1012 123.505 13.1012 123.392 13.1388 123.279C13.1764 123.166 13.2516 123.053 13.4021 123.016C13.6277 122.94 13.8157 122.865 13.9286 122.828C14.0414 122.79 14.1542 122.752 14.2294 122.64C14.4551 122.414 14.6807 122 14.8687 121.436C15.0568 120.872 15.2448 120.233 15.3576 119.556C15.4705 118.841 15.5081 118.127 15.5081 117.412C15.5081 116.66 15.3952 115.983 15.1696 115.381C14.944 114.78 14.6431 114.291 14.1918 113.877C13.7405 113.501 13.1388 113.313 12.3867 113.351C11.5593 113.388 10.7695 113.727 9.94219 114.404C9.11482 115.081 8.36268 115.983 7.64814 117.074C6.9336 118.164 6.29428 119.405 5.69256 120.797C5.12845 122.188 4.63956 123.617 4.26348 125.046C3.88741 126.513 3.66177 127.905 3.54895 129.296C3.43612 130.688 3.51134 131.929 3.73698 133.019C3.96263 134.11 4.37631 134.975 4.97802 135.652C5.57974 136.329 6.4071 136.667 7.49771 136.667C8.62593 136.667 9.79176 136.404 10.8824 135.84C12.0106 135.276 13.026 134.524 14.0038 133.621C14.944 132.718 15.7713 131.703 16.4482 130.612C17.1628 129.447 17.6517 128.356 17.9149 127.341Z" fill="#D6163F"/>
<path d="M25.0237 127.336C25.0613 127.223 25.1365 127.186 25.3246 127.186C25.475 127.186 25.5502 127.261 25.5126 127.411C25.3998 127.787 25.287 128.276 25.0989 128.878C24.9109 129.442 24.7229 130.081 24.4596 130.721C24.1963 131.36 23.9331 132.037 23.6322 132.676C23.3314 133.316 22.9553 133.917 22.5792 134.444C22.2032 134.97 21.7895 135.384 21.3006 135.723C20.8493 136.061 20.3604 136.211 19.8339 136.211C18.8185 136.211 18.0664 136.023 17.6151 135.61C17.1262 135.196 16.8253 134.67 16.7125 134.03C16.5997 133.391 16.5621 132.676 16.7125 131.849C16.8253 131.059 17.0134 130.232 17.2014 129.404C17.3894 128.69 17.5775 128.013 17.7655 127.336C17.9535 126.659 18.1792 125.982 18.4048 125.268H19.9843C20.398 125.268 20.7365 125.305 20.9621 125.343C21.1878 125.381 21.3382 125.493 21.4134 125.644C21.4886 125.794 21.4886 126.02 21.3758 126.321C21.263 126.772 21.0749 127.298 20.9245 127.9C20.7365 128.502 20.5484 129.141 20.398 129.818C20.21 130.495 20.0595 131.134 19.9467 131.774C19.8339 132.413 19.7211 132.977 19.6835 133.504C19.6459 134.03 19.6835 134.444 19.7963 134.745C19.9091 135.046 20.0972 135.234 20.398 135.234C20.6237 135.234 20.8117 135.196 21.0373 135.083C21.263 135.008 21.451 134.858 21.6014 134.745C22.0527 134.331 22.4664 133.767 22.8425 133.09C23.2186 132.413 23.557 131.736 23.8203 130.984C24.1211 130.269 24.3468 129.555 24.5724 128.916C24.7605 128.276 24.9109 127.712 25.0237 127.336ZM20.4356 124.591C19.9843 124.591 19.5707 124.403 19.2698 124.064C18.9689 123.726 18.7809 123.275 18.7809 122.786C18.7809 122.297 18.9313 121.883 19.2698 121.507C19.6083 121.169 19.9843 120.98 20.4356 120.98C20.9245 120.98 21.3006 121.169 21.6391 121.507C21.9399 121.845 22.1279 122.297 22.1279 122.786C22.1279 123.312 21.9775 123.726 21.6391 124.064C21.3006 124.403 20.8869 124.591 20.4356 124.591Z" fill="#D6163F"/>
<path d="M34.5396 127.342C34.5396 127.304 34.5772 127.267 34.6524 127.229C34.7277 127.191 34.7653 127.191 34.8405 127.191C34.9157 127.191 34.9533 127.229 34.9909 127.267C35.0285 127.304 35.0661 127.342 35.0285 127.417C34.9157 127.793 34.8029 128.32 34.6148 128.921C34.4268 129.561 34.2012 130.2 33.9379 130.915C33.6747 131.629 33.3738 132.344 33.0353 133.021C32.6969 133.735 32.3584 134.374 31.9447 134.976C31.531 135.54 31.1174 136.029 30.6285 136.405C30.1772 136.781 29.6507 136.932 29.1242 136.932C28.1088 136.932 27.3566 136.744 26.8301 136.368C26.3036 135.992 25.9652 135.503 25.8147 134.901C25.6267 134.299 25.5891 133.622 25.7019 132.908C25.7771 132.156 25.9276 131.441 26.1532 130.727C26.3788 130.012 26.6045 129.335 26.8301 128.733C27.0934 128.094 27.2814 127.605 27.4318 127.267C27.1686 127.079 26.8677 126.928 26.6045 126.74C26.3412 126.59 26.0404 126.439 25.7771 126.289L25.4387 127.605C25.4387 127.643 25.3634 127.68 25.3258 127.718C25.2506 127.756 25.213 127.756 25.1378 127.756C25.0626 127.756 25.025 127.718 24.9874 127.68C24.9498 127.643 24.9498 127.605 24.9498 127.53C24.9874 127.342 25.0626 127.116 25.1378 126.853C25.213 126.59 25.2506 126.327 25.3258 126.026C24.9874 125.762 24.7241 125.462 24.4985 125.123C24.2728 124.747 24.2728 124.371 24.4609 123.957C24.5737 123.656 24.7617 123.431 24.9874 123.28C25.2506 123.13 25.5139 123.055 25.7019 123.055C25.8899 123.092 26.0404 123.13 26.1532 123.243C26.266 123.356 26.3412 123.431 26.3788 123.544C26.4164 123.656 26.4164 123.694 26.4164 123.656C26.3412 124.032 26.266 124.371 26.1532 124.747C26.078 125.123 25.9652 125.462 25.8523 125.838C26.0028 125.95 26.266 126.063 26.5669 126.251C26.8677 126.439 27.2062 126.627 27.5447 126.815C27.8831 127.003 28.2592 127.229 28.5977 127.455C28.9737 127.68 29.2746 127.868 29.5755 128.056C29.8763 128.244 30.1396 128.395 30.3652 128.508C30.5909 128.621 30.7037 128.696 30.7413 128.733C30.6661 128.959 30.5156 129.297 30.3276 129.711C30.1396 130.125 29.9515 130.576 29.7259 131.103C29.5379 131.592 29.3498 132.118 29.1618 132.682C28.9737 133.246 28.8609 133.735 28.8233 134.186C28.7481 134.638 28.7481 135.051 28.8609 135.39C28.9361 135.728 29.1242 135.954 29.4626 136.067C29.8763 136.18 30.3652 136.029 30.8541 135.578C31.3054 135.164 31.7567 134.563 32.1328 133.81C32.5088 133.058 32.8849 132.268 33.1858 131.479C33.4866 130.651 33.7875 129.899 34.0131 129.147C34.2764 128.32 34.4268 127.718 34.5396 127.342Z" fill="#D6163F"/>
<path d="M44.3491 127.34C44.3867 127.228 44.4619 127.19 44.65 127.19C44.8004 127.19 44.8756 127.265 44.838 127.416C44.6876 128.017 44.4995 128.657 44.2363 129.334C43.973 130.048 43.7098 130.725 43.3713 131.44C43.0329 132.154 42.6568 132.793 42.2055 133.47C41.7542 134.11 41.3029 134.674 40.7388 135.2C40.2123 135.689 39.6106 136.103 39.0089 136.366C38.3695 136.667 37.6926 136.78 36.9405 136.742C35.8499 136.705 34.9849 136.441 34.3456 135.99C33.7062 135.539 33.255 134.975 32.9917 134.298C32.7285 133.621 32.6156 132.831 32.6908 132.004C32.7661 131.176 32.9165 130.311 33.255 129.446C33.5182 128.769 33.8191 128.13 34.2327 127.528C34.6464 126.927 35.0977 126.4 35.6242 125.949C36.1507 125.498 36.7524 125.159 37.3918 124.934C38.0311 124.708 38.7456 124.633 39.4978 124.708C39.9867 124.745 40.3627 124.896 40.626 125.159C40.8892 125.422 41.0773 125.723 41.1901 126.062C41.3029 126.4 41.3029 126.776 41.2653 127.152C41.1901 127.528 41.1149 127.905 40.9268 128.205C40.8516 128.318 40.7764 128.431 40.6636 128.469C40.5508 128.506 40.4003 128.506 40.2875 128.506C40.1371 128.506 39.9867 128.469 39.7986 128.431C39.6106 128.393 39.4602 128.356 39.3097 128.318C39.573 128.168 39.7986 127.905 39.9867 127.604C40.1747 127.303 40.2875 127.002 40.3251 126.663C40.3627 126.363 40.3251 126.099 40.1747 125.836C40.0619 125.61 39.7986 125.46 39.4602 125.46C39.1217 125.498 38.7832 125.761 38.3695 126.287C37.9559 126.814 37.5798 127.416 37.2413 128.168C36.9029 128.92 36.602 129.747 36.3387 130.612C36.0755 131.477 35.9251 132.305 35.8875 133.057C35.8499 133.809 35.9251 134.411 36.1507 134.937C36.3764 135.464 36.79 135.689 37.3541 135.689C38.3319 135.689 39.1969 135.426 39.9867 134.824C40.7388 134.26 41.4157 133.508 42.0175 132.681C42.5816 131.816 43.0705 130.913 43.4465 129.935C43.8978 128.958 44.1611 128.093 44.3491 127.34Z" fill="#D6163F"/>
<path d="M52.4412 127.302C52.4412 127.264 52.4788 127.227 52.554 127.189C52.6292 127.152 52.6668 127.152 52.7421 127.152C52.8173 127.152 52.8549 127.189 52.8925 127.227C52.9301 127.264 52.9677 127.302 52.9301 127.377C52.8173 127.753 52.7045 128.28 52.5164 128.881C52.3284 129.483 52.1403 130.085 51.8771 130.762C51.6138 131.401 51.3506 132.078 51.0121 132.717C50.7113 133.357 50.3352 133.958 49.9215 134.485C49.5078 135.011 49.0942 135.425 48.6053 135.764C48.1164 136.102 47.6275 136.252 47.0634 136.252C46.1984 136.252 45.5215 136.102 44.995 135.764C44.4685 135.425 44.13 134.974 43.8667 134.447C43.6411 133.883 43.4907 133.282 43.4907 132.567C43.4531 131.852 43.4907 131.1 43.6035 130.348C43.6787 129.596 43.8291 128.844 43.9796 128.092C44.13 127.34 44.2804 126.663 44.4308 126.023C44.6941 124.594 44.995 123.128 45.3334 121.698C45.6343 120.269 45.9727 118.916 46.2736 117.637C46.4616 116.847 46.7249 116.17 47.0634 115.606C47.4018 115.042 47.7779 114.591 48.1916 114.215C48.6053 113.839 49.0189 113.575 49.4702 113.425C49.9215 113.274 50.3728 113.199 50.8241 113.199C51.4258 113.237 51.9523 113.425 52.4412 113.763C52.9301 114.102 53.231 114.591 53.419 115.268C53.5318 115.644 53.5318 116.057 53.5318 116.471C53.4942 116.885 53.419 117.336 53.3062 117.75C53.1933 118.201 53.0429 118.652 52.8549 119.066C52.6668 119.517 52.4788 119.931 52.2908 120.345C51.9147 121.059 51.5386 121.774 51.1249 122.451C50.7113 123.165 50.26 123.842 49.8463 124.444C49.395 125.083 49.0189 125.61 48.6053 126.099C48.2292 126.587 47.8907 126.963 47.6275 127.227C47.5523 127.64 47.477 128.054 47.4018 128.468C47.3266 128.881 47.2514 129.295 47.1762 129.671C47.0634 130.273 46.9881 130.912 46.9129 131.552C46.8377 132.191 46.8001 132.793 46.8377 133.357C46.8377 133.921 46.9129 134.372 47.0634 134.711C47.1762 135.049 47.4018 135.237 47.7403 135.237C48.1164 135.237 48.4548 135.049 48.7933 134.748C49.1318 134.447 49.4702 134.034 49.8087 133.545C50.1472 133.056 50.448 132.529 50.7489 131.928C51.0497 131.326 51.313 130.724 51.5386 130.16C51.7643 129.596 51.9899 129.032 52.1403 128.543C52.2156 128.016 52.366 127.603 52.4412 127.302ZM50.0719 116.621C49.8463 117.11 49.6207 117.637 49.4326 118.239C49.2446 118.84 49.0565 119.48 48.9061 120.157C48.7557 120.833 48.6053 121.473 48.4924 122.15C48.3796 122.789 48.2668 123.428 48.154 123.993C48.0412 124.557 47.9659 125.046 47.8907 125.459C47.8155 125.873 47.7779 126.174 47.7403 126.362C48.0035 126.023 48.342 125.647 48.6805 125.158C49.0189 124.707 49.395 124.181 49.7335 123.654C50.1096 123.128 50.448 122.526 50.7865 121.962C51.1249 121.36 51.4634 120.758 51.7643 120.194C51.8395 120.044 51.9147 119.856 52.0275 119.63C52.1403 119.404 52.2532 119.179 52.3284 118.916C52.4412 118.652 52.5164 118.389 52.6292 118.088C52.7045 117.787 52.7797 117.524 52.8173 117.223C52.9301 116.584 52.8549 116.133 52.6292 115.869C52.4036 115.568 52.1403 115.418 51.8019 115.418C51.501 115.418 51.1626 115.493 50.8617 115.719C50.5232 115.907 50.26 116.208 50.0719 116.621Z" fill="#D6163F"/>
<path d="M62.2905 127.3C62.3281 127.188 62.4033 127.15 62.5914 127.15C62.7418 127.15 62.817 127.225 62.7794 127.376C62.629 127.977 62.4409 128.617 62.1777 129.294C61.9144 130.008 61.6512 130.685 61.3127 131.4C60.9743 132.114 60.5982 132.754 60.1469 133.43C59.6956 134.07 59.2443 134.634 58.6802 135.16C58.1537 135.649 57.552 136.063 56.9503 136.364C56.311 136.665 55.634 136.778 54.8819 136.74C53.7913 136.702 52.9263 136.439 52.287 135.988C51.6477 135.536 51.1964 134.972 50.9331 134.295C50.6699 133.619 50.557 132.829 50.6322 132.001C50.7075 131.174 50.8579 130.309 51.1964 129.444C51.4972 128.654 51.8733 127.902 52.3998 127.225C52.8887 126.548 53.4904 125.984 54.1673 125.533C54.581 125.27 55.0699 125.044 55.5588 124.894C56.0853 124.743 56.5742 124.668 57.0631 124.668C57.4016 124.668 57.74 124.743 58.0409 124.894C58.3417 125.006 58.605 125.194 58.8306 125.42C59.0563 125.646 59.2067 125.909 59.3195 126.21C59.4324 126.511 59.47 126.849 59.3948 127.188C59.3195 127.752 59.0939 128.241 58.793 128.654C58.4546 129.068 58.0785 129.369 57.5896 129.632C57.1007 129.895 56.6118 130.083 56.0477 130.196C55.4836 130.309 54.9195 130.384 54.4306 130.384C54.2426 131.061 54.0921 131.701 53.9793 132.34C53.8665 132.979 53.8665 133.543 53.9041 134.032C53.9417 134.521 54.0921 134.935 54.3178 135.273C54.5434 135.574 54.9195 135.762 55.3708 135.762C56.0101 135.762 56.6494 135.649 57.1759 135.386C57.74 135.123 58.2665 134.747 58.7178 134.295C59.2067 133.844 59.6204 133.318 59.9965 132.754C60.3725 132.152 60.711 131.55 61.0119 130.948C61.3127 130.309 61.576 129.707 61.764 129.068C61.9897 128.353 62.1777 127.789 62.2905 127.3ZM57.6648 125.608C57.2887 125.608 56.9127 125.759 56.5742 126.059C56.2357 126.398 55.9349 126.774 55.6716 127.225C55.4084 127.677 55.1827 128.165 54.9947 128.617C54.8067 129.106 54.6562 129.482 54.581 129.783C55.0323 129.783 55.4836 129.707 55.9349 129.595C56.3862 129.482 56.7622 129.331 57.1383 129.106C57.5144 128.88 57.8152 128.617 58.0409 128.278C58.3041 127.94 58.4546 127.526 58.4922 127.037C58.5674 126.473 58.5298 126.097 58.3417 125.871C58.1537 125.721 57.9281 125.608 57.6648 125.608Z" fill="#D6163F"/>
<path d="M85.3461 127.341C85.3461 127.303 85.3837 127.265 85.4589 127.228C85.5341 127.19 85.5717 127.19 85.6469 127.19C85.7221 127.19 85.7598 127.228 85.7974 127.265C85.835 127.303 85.835 127.341 85.835 127.416C85.5341 128.582 85.0452 129.785 84.3307 131.026C83.6161 132.229 82.7512 133.358 81.7734 134.373C80.7956 135.389 79.705 136.178 78.5015 136.818C77.2981 137.457 76.0947 137.758 74.8912 137.758C73.5374 137.758 72.4092 137.495 71.469 137.006C70.5288 136.517 69.7767 135.84 69.2125 135.012C68.6484 134.185 68.2348 133.207 68.0091 132.079C67.7835 130.951 67.6706 129.785 67.7459 128.506C67.8211 127.265 68.0091 125.987 68.3476 124.633C68.686 123.317 69.0997 122.038 69.6638 120.797C70.1903 119.556 70.8297 118.39 71.5818 117.262C72.334 116.171 73.1237 115.193 74.0263 114.366C74.9289 113.539 75.869 112.899 76.8468 112.448C77.8622 111.997 78.8776 111.771 79.9682 111.809C80.7956 111.846 81.4725 112.11 81.9614 112.561C82.4879 113.012 82.864 113.614 83.1272 114.328C83.3905 115.043 83.5409 115.833 83.5409 116.698C83.5785 117.563 83.5409 118.39 83.3905 119.255C83.2777 120.082 83.0896 120.872 82.8264 121.549C82.5631 122.264 82.2623 122.79 81.9238 123.204C81.6982 123.467 81.5101 123.655 81.3221 123.73C81.1341 123.843 80.9836 123.881 80.8708 123.843C80.758 123.805 80.6828 123.73 80.6076 123.617C80.5699 123.505 80.5699 123.392 80.6076 123.279C80.6452 123.166 80.7204 123.053 80.8708 123.016C81.0965 122.94 81.2845 122.865 81.3973 122.828C81.5101 122.79 81.623 122.752 81.6982 122.64C81.9238 122.414 82.1495 122 82.3375 121.436C82.5255 120.872 82.7136 120.233 82.8264 119.556C82.9392 118.841 82.9768 118.127 82.9768 117.412C82.9768 116.66 82.864 115.983 82.6384 115.381C82.4127 114.78 82.1118 114.291 81.6606 113.877C81.2093 113.501 80.6076 113.313 79.8554 113.351C79.028 113.388 78.2383 113.727 77.4109 114.404C76.5836 115.081 75.8314 115.983 75.1169 117.074C74.4024 118.164 73.763 119.405 73.1613 120.797C72.5972 122.188 72.1083 123.617 71.7322 125.046C71.3562 126.513 71.1305 127.905 71.0177 129.296C70.9049 130.688 70.9801 131.929 71.2057 133.019C71.4314 134.11 71.8451 134.975 72.4468 135.652C73.0485 136.329 73.8758 136.667 74.9665 136.667C76.0947 136.667 77.2605 136.404 78.3511 135.84C79.4793 135.276 80.4947 134.524 81.4725 133.621C82.4127 132.718 83.2401 131.703 83.917 130.612C84.5939 129.447 85.0828 128.356 85.3461 127.341Z" fill="#D6163F"/>
<path d="M98.8451 127.336C98.8827 127.223 98.9579 127.186 99.1459 127.186C99.2964 127.186 99.3716 127.261 99.334 127.411C99.2212 127.787 99.1083 128.276 98.9203 128.878C98.7323 129.442 98.5442 130.081 98.281 130.721C98.0177 131.36 97.7545 132.037 97.4536 132.676C97.1528 133.316 96.7767 133.917 96.4006 134.444C96.0245 134.97 95.6108 135.384 95.122 135.722C94.6707 136.061 94.1818 136.211 93.6553 136.211C92.9031 136.211 92.3014 136.061 91.8877 135.798C91.474 135.497 91.1732 135.121 90.9852 134.632C90.7971 134.143 90.7219 133.579 90.7219 132.977C90.7219 132.338 90.7971 131.698 90.9099 131.022C90.6467 131.736 90.3834 132.451 90.1202 133.165C89.8193 133.88 89.5185 134.519 89.18 135.083C88.8039 135.722 88.3902 136.211 87.939 136.475C87.4877 136.738 87.0364 136.888 86.5851 136.851C85.6073 136.775 84.8928 136.475 84.4415 135.91C83.9902 135.346 83.6893 134.707 83.5765 133.917C83.4637 133.165 83.4637 132.375 83.6141 131.548C83.7269 130.721 83.915 130.044 84.1406 129.442C84.3287 128.84 84.5919 128.276 84.8928 127.75C85.1936 127.223 85.5321 126.734 85.9458 126.358C86.3595 125.945 86.8483 125.644 87.4125 125.418C87.9766 125.192 88.6159 125.117 89.368 125.117C89.9321 125.155 90.4963 125.268 91.0604 125.493C91.6245 125.719 92.1134 126.02 92.6023 126.358C93.0912 126.697 93.5424 127.11 93.9561 127.562C94.3698 128.013 94.7459 128.502 95.0467 129.028C94.9715 129.254 94.8963 129.555 94.7459 129.969C94.5955 130.345 94.445 130.758 94.3322 131.247C94.1818 131.698 94.0313 132.15 93.9185 132.639C93.8057 133.09 93.7305 133.541 93.6553 133.917C93.6177 134.293 93.6177 134.594 93.7305 134.857C93.8057 135.121 93.9937 135.234 94.257 135.234C94.4826 135.234 94.6707 135.196 94.8963 135.083C95.122 135.008 95.31 134.857 95.4604 134.745C95.9117 134.331 96.3254 133.767 96.7015 133.09C97.0775 132.413 97.416 131.736 97.6792 130.984C97.9801 130.269 98.2057 129.555 98.4314 128.916C98.6194 128.276 98.7699 127.712 98.8451 127.336ZM87.5253 135.61C87.7885 135.61 88.0142 135.459 88.315 135.083C88.5783 134.707 88.8791 134.256 89.18 133.692C89.4809 133.128 89.7441 132.488 90.0074 131.811C90.2706 131.097 90.5339 130.457 90.7595 129.78C90.9851 129.141 91.1732 128.539 91.3612 128.013C91.5493 127.486 91.6621 127.11 91.7373 126.847C91.3612 126.358 90.9851 126.133 90.5715 126.17C90.1954 126.208 89.8193 126.471 89.4433 126.96C89.0672 127.449 88.7663 128.051 88.4655 128.727C88.1646 129.442 87.9014 130.157 87.6757 130.946C87.4501 131.736 87.2996 132.488 87.2244 133.165C87.1116 133.842 87.1116 134.444 87.1492 134.895C87.1492 135.346 87.2996 135.572 87.5253 135.61Z" fill="#D6163F"/>
<path d="M108.361 127.342C108.361 127.304 108.399 127.267 108.474 127.229C108.549 127.191 108.587 127.191 108.662 127.191C108.737 127.191 108.775 127.229 108.813 127.267C108.85 127.304 108.888 127.342 108.85 127.417C108.737 127.793 108.625 128.32 108.437 128.921C108.249 129.561 108.023 130.2 107.76 130.915C107.496 131.629 107.196 132.344 106.857 133.021C106.519 133.735 106.18 134.374 105.766 134.976C105.353 135.54 104.939 136.029 104.45 136.405C103.999 136.781 103.472 136.932 102.946 136.932C101.931 136.932 101.178 136.744 100.652 136.368C100.125 135.992 99.7869 135.503 99.6365 134.901C99.4485 134.299 99.4109 133.622 99.5237 132.908C99.5989 132.156 99.7493 131.441 99.975 130.727C100.201 130.012 100.426 129.335 100.652 128.733C100.915 128.094 101.103 127.605 101.254 127.267C100.99 127.079 100.69 126.928 100.426 126.74C100.163 126.59 99.8621 126.439 99.5989 126.289L99.298 127.605C99.298 127.643 99.2228 127.68 99.1852 127.718C99.11 127.756 99.0724 127.756 98.9972 127.756C98.922 127.756 98.8843 127.718 98.8467 127.68C98.8091 127.643 98.8091 127.605 98.8091 127.53C98.8467 127.342 98.922 127.116 98.9972 126.853C99.0724 126.59 99.11 126.327 99.1852 126.026C98.8467 125.762 98.5835 125.462 98.3578 125.123C98.1322 124.747 98.1322 124.371 98.3202 123.957C98.4331 123.656 98.6211 123.431 98.8467 123.28C99.11 123.13 99.3732 123.055 99.5613 123.055C99.7493 123.092 99.8997 123.13 100.013 123.243C100.125 123.356 100.201 123.431 100.238 123.544C100.276 123.656 100.276 123.694 100.276 123.656C100.201 124.032 100.125 124.371 100.013 124.747C99.9374 125.123 99.8245 125.462 99.7117 125.838C99.8621 125.95 100.125 126.063 100.426 126.251C100.727 126.439 101.066 126.627 101.404 126.815C101.743 127.003 102.119 127.229 102.457 127.455C102.833 127.68 103.134 127.868 103.435 128.056C103.736 128.244 103.999 128.395 104.225 128.508C104.45 128.621 104.563 128.696 104.601 128.733C104.525 128.959 104.375 129.297 104.187 129.711C103.999 130.125 103.811 130.576 103.585 131.103C103.397 131.592 103.209 132.118 103.021 132.682C102.833 133.246 102.72 133.735 102.683 134.186C102.607 134.638 102.607 135.051 102.72 135.39C102.796 135.728 102.984 135.954 103.322 136.067C103.736 136.18 104.225 136.029 104.713 135.578C105.165 135.164 105.616 134.563 105.992 133.81C106.368 133.058 106.744 132.268 107.045 131.479C107.346 130.651 107.647 129.899 107.872 129.147C108.098 128.32 108.249 127.718 108.361 127.342Z" fill="#D6163F"/>
<path d="M118.248 127.3C118.285 127.188 118.36 127.15 118.548 127.15C118.699 127.15 118.774 127.225 118.736 127.376C118.586 127.977 118.398 128.617 118.135 129.294C117.871 130.008 117.608 130.685 117.27 131.4C116.931 132.114 116.555 132.754 116.104 133.43C115.653 134.07 115.201 134.634 114.637 135.16C114.111 135.649 113.509 136.063 112.907 136.364C112.268 136.665 111.591 136.778 110.839 136.74C109.748 136.702 108.883 136.439 108.244 135.988C107.605 135.536 107.153 134.972 106.89 134.295C106.627 133.619 106.514 132.829 106.589 132.001C106.664 131.174 106.815 130.309 107.153 129.444C107.454 128.654 107.83 127.902 108.357 127.225C108.846 126.548 109.447 125.984 110.124 125.533C110.538 125.27 111.027 125.044 111.516 124.894C112.042 124.743 112.531 124.668 113.02 124.668C113.359 124.668 113.697 124.743 113.998 124.894C114.299 125.006 114.562 125.194 114.788 125.42C115.013 125.646 115.164 125.909 115.277 126.21C115.389 126.511 115.427 126.849 115.352 127.188C115.277 127.752 115.051 128.241 114.75 128.654C114.412 129.068 114.036 129.369 113.547 129.632C113.058 129.895 112.569 130.083 112.005 130.196C111.441 130.309 110.877 130.384 110.388 130.384C110.2 131.061 110.049 131.701 109.936 132.34C109.824 132.979 109.824 133.543 109.861 134.032C109.899 134.521 110.049 134.935 110.275 135.273C110.5 135.574 110.877 135.762 111.328 135.762C111.967 135.762 112.606 135.649 113.133 135.386C113.697 135.123 114.224 134.747 114.675 134.295C115.164 133.844 115.577 133.318 115.953 132.754C116.33 132.152 116.668 131.55 116.969 130.948C117.27 130.309 117.533 129.707 117.721 129.068C117.947 128.353 118.097 127.789 118.248 127.3ZM113.622 125.608C113.246 125.608 112.87 125.759 112.531 126.059C112.193 126.398 111.892 126.774 111.629 127.225C111.365 127.677 111.14 128.165 110.952 128.617C110.764 129.106 110.613 129.482 110.538 129.783C110.989 129.783 111.441 129.707 111.892 129.595C112.343 129.482 112.719 129.331 113.095 129.106C113.471 128.88 113.772 128.617 113.998 128.278C114.261 127.94 114.412 127.526 114.449 127.037C114.524 126.473 114.487 126.097 114.299 125.871C114.111 125.721 113.885 125.608 113.622 125.608Z" fill="#D6163F"/>
<path d="M59.2831 47.9492C56.3497 47.9492 53.9805 53.2142 53.9805 59.7203C53.9805 66.2264 56.3497 71.4914 59.2831 71.4914C62.2165 71.4914 64.5857 66.2264 64.5857 59.7203C64.5857 53.2142 62.2165 47.9492 59.2831 47.9492Z" fill="#4E4D4F"/>
<path d="M59.2819 42.1184C61.6887 42.1184 63.6067 40.2005 63.6067 37.7936C63.6067 35.3867 61.6511 33.4688 59.2819 33.4688C56.875 33.4688 54.957 35.4243 54.957 37.7936C54.957 40.1628 56.9126 42.1184 59.2819 42.1184ZM60.4853 36.3645C60.7486 36.3645 60.9366 36.6278 60.9366 36.9662C60.9366 37.3047 60.7486 37.5679 60.4853 37.5679C60.2221 37.5679 60.034 37.3047 60.034 36.9662C60.034 36.6278 60.2221 36.3645 60.4853 36.3645ZM58.116 36.3645C58.3793 36.3645 58.5673 36.6278 58.5673 36.9662C58.5673 37.3047 58.3793 37.5679 58.116 37.5679C57.8528 37.5679 57.6648 37.3047 57.6648 36.9662C57.6648 36.6278 57.8904 36.3645 58.116 36.3645ZM56.687 38.3953C57.1759 38.5457 58.0032 38.6962 59.2443 38.6962C60.3725 38.6962 61.3503 38.5081 61.8768 38.3201C62.0648 38.2449 62.2528 38.4329 62.1776 38.6209C61.952 39.4483 61.2375 41.103 59.3195 41.103C57.4015 41.103 56.5741 39.7116 56.3109 38.6586C56.3109 38.5081 56.4989 38.3201 56.687 38.3953Z" fill="#4E4D4F"/>
</svg>
