<?xml version="1.0" encoding="UTF-8"?>
<svg id="Layer_1" data-name="Layer 1" xmlns="http://www.w3.org/2000/svg" viewBox="0 0 351.84 465.68">
  <defs>
    <style>
      .cls-1 {
        fill: #a8aaad;
      }

      .cls-2 {
        fill: #fff;
      }

      .cls-3 {
        fill: #45494c;
      }

      .cls-4 {
        fill: #d9224a;
      }

      .cls-5 {
        fill: #a72b4f;
      }
    </style>
  </defs>
  <g>
    <path class="cls-4" d="m222.4,188.77c2.19-3.05,3.96-5.67,5.68-8.55,1.71-2.89,3.39-6.04,5.01-10.31.43-1.16,1.05-2.91,1.68-5.13.33-1.11.62-2.34.92-3.66.14-.7.29-1.42.44-2.14.13-.79.26-1.59.39-2.41.1-.82.2-1.65.3-2.49.08-.85.13-1.7.2-2.57.35-6.95-.38-14.57-2.52-22.13-2.14-7.55-5.74-14.95-10.51-21.33-4.75-6.39-10.64-11.72-16.8-15.53-6.15-3.87-12.54-6.14-18.08-7.33-5.57-1.17-10.28-1.3-13.52-1.16-1.62.11-2.89.2-3.75.26-.43.03-.76.05-.98.07-.22.03-.33.05-.33.05,0,0-1.81.31-5.01.87-1.58.38-3.48.95-5.68,1.56-1.06.41-2.2.85-3.4,1.32-.6.24-1.22.46-1.84.73-.6.3-1.22.62-1.86.94-5.08,2.48-10.72,6.21-15.79,11.39-5.08,5.13-9.65,11.59-12.89,18.84-3.27,7.25-5.19,15.2-5.77,23.04-.23,3.92-.16,7.75.26,11.5.21,1.87.51,3.68.85,5.45.17.88.36,1.75.55,2.61.1.43.2.85.3,1.28.09.38.19.76.28,1.13,1.47,5.89,3.49,10.43,4.5,12.67,1.9,4.14,3.77,7.19,5.68,9.96,1.9,2.77,3.88,5.24,6.33,8.09-2.44-2.86-4.14-5.54-5.69-8.48-1.55-2.94-2.98-6.14-4.51-10.31-.8-2.26-2.44-6.82-3.49-12.56-.14-.78-.27-1.57-.41-2.36-.14-.84-.27-1.69-.38-2.55-.23-1.72-.42-3.46-.52-5.23-.2-3.52-.08-7.2.31-10.85.9-7.3,2.98-14.68,6.22-21.28,3.21-6.63,7.55-12.44,12.28-17.03,4.7-4.63,9.85-7.93,14.45-10.12.57-.28,1.13-.56,1.67-.83.56-.24,1.12-.43,1.66-.64,1.08-.41,2.1-.81,3.06-1.17,1.98-.53,3.68-1.04,5.1-1.38,2.87-.49,4.49-.77,4.49-.77,0,0,.1-.02.3-.05.2-.01.49-.03.88-.06.77-.05,1.91-.13,3.36-.23,2.9-.13,7.13-.02,12.12.99,4.98,1.04,10.73,3.01,16.36,6.42,5.63,3.37,11.13,8.09,15.67,13.86,4.55,5.75,8.15,12.5,10.46,19.48,2.31,6.99,3.38,14.19,3.44,20.79-.02.82-.03,1.64-.05,2.45-.05.8-.1,1.6-.14,2.39-.08.78-.15,1.56-.23,2.32-.1.7-.19,1.39-.29,2.08-.21,1.29-.41,2.49-.64,3.58-.45,2.18-.92,3.92-1.25,5.08-1.24,4.26-2.47,7.54-3.83,10.58-1.37,3.03-2.85,5.83-5.03,8.89"/>
    <path class="cls-1" d="m213.46,169.55c1.17-2.21,2.11-4.1,2.99-6.16.87-2.06,1.69-4.3,2.4-7.25.18-.8.45-2,.69-3.52.12-.76.24-1.59.34-2.48.03-.24.05-.48.08-.72.02-.29.05-.58.08-.87.06-.58.08-1.18.12-1.79.07-1.21.08-2.45,0-3.73-.07-1.27-.03-2.59-.21-3.9-.18-1.32-.35-2.67-.54-4.03-.31-1.35-.61-2.71-.93-4.09-.36-1.37-.86-2.71-1.3-4.09-1.97-5.42-5-10.67-8.86-15.08-3.85-4.42-8.51-7.96-13.3-10.31-4.79-2.38-9.64-3.53-13.79-4-4.18-.26-7.6-.11-9.95.29-1.17.18-2.1.3-2.72.43-.62.15-.94.23-.94.23,0,0-.33.08-.94.23-.61.18-1.54.31-2.65.74-.56.2-1.19.41-1.87.65-.34.12-.7.23-1.06.38-.36.16-.72.33-1.11.51-.76.35-1.58.71-2.43,1.13-.82.48-1.68.98-2.58,1.5-3.53,2.21-7.36,5.42-10.59,9.67-3.25,4.23-5.84,9.46-7.41,15.07-1.59,5.61-2.21,11.55-2.09,17.27.09,1.43.09,2.86.25,4.25.18,1.39.3,2.78.54,4.13.27,1.34.48,2.68.8,3.96.17.64.34,1.27.5,1.9l.25.94c.04.15.08.31.13.46l.12.35c1.17,3.86,2.62,6.83,3.32,8.31,2.74,5.41,5,8.05,7.99,12.04-2.96-4.04-4.59-7.07-6.88-12.54-.58-1.5-1.78-4.49-2.68-8.29l-.09-.35c-.04-.15-.07-.3-.1-.45l-.19-.92c-.13-.61-.25-1.24-.38-1.86-.24-1.26-.37-2.56-.57-3.86-.16-1.31-.2-2.65-.32-3.99-.09-1.35-.03-2.72-.05-4.09.13-5.49.93-11.12,2.58-16.32,1.63-5.21,4.14-9.96,7.17-13.76,3.01-3.82,6.51-6.67,9.72-8.65.82-.47,1.6-.92,2.35-1.34.77-.37,1.52-.69,2.21-1.01.35-.16.68-.31,1-.46.33-.14.66-.23.96-.34.62-.21,1.19-.41,1.7-.59,1.01-.39,1.86-.51,2.41-.67.56-.14.86-.21.86-.21,0,0,.3-.07.86-.21.56-.12,1.41-.22,2.48-.39,2.14-.37,5.3-.5,9.05-.3,3.74.41,8.13,1.4,12.52,3.49,4.39,2.07,8.74,5.22,12.41,9.22,3.69,3.99,6.69,8.79,8.76,13.83.46,1.28.98,2.53,1.39,3.81.36,1.3.71,2.58,1.06,3.84.24,1.29.47,2.57.7,3.82.14.62.17,1.26.23,1.88.06.62.11,1.24.17,1.85.14,1.22.2,2.42.2,3.59,0,.58.02,1.16,0,1.73,0,.28-.02.57-.02.85-.01.23-.02.47-.03.7-.04.87-.1,1.69-.17,2.43-.13,1.48-.31,2.67-.43,3.47-.48,2.92-1.01,5.2-1.65,7.32-.64,2.12-1.39,4.1-2.55,6.31"/>
    <path class="cls-4" d="m199.76,153.54c1.17-2.21,1.99-3.73,2.87-6.62.12-.39.28-.99.45-1.73.08-.37.17-.78.25-1.22l.08-.44.08-.55c.06-.37.11-.75.15-1.14.09-.77.14-1.57.18-2.38.06-3.25-.29-6.85-1.43-10.37-1.12-3.51-2.97-6.92-5.38-9.77-2.4-2.86-5.35-5.16-8.39-6.68-3.04-1.54-6.12-2.3-8.76-2.58-2.66-.18-4.83-.08-6.33.18-1.51.19-2.33.43-2.33.43,0,0-.21.05-.6.14-.39.09-.97.22-1.69.49-.72.24-1.61.52-2.57.99-.99.4-2.04,1.02-3.19,1.69-2.24,1.43-4.64,3.52-6.64,6.27-2.01,2.74-3.58,6.13-4.44,9.75-.88,3.62-1.12,7.43-.85,11.09.08.91.21,1.82.31,2.71.17.88.32,1.76.52,2.62.24.85.41,1.69.69,2.49.14.4.27.8.4,1.19.07.2.13.39.21.58l.2.5c.72,1.87,1.52,3.31,1.9,4.03,1.48,2.64,2.63,3.92,4.14,5.91-1.49-2.01-2.4-3.46-3.69-6.15-.34-.73-1.03-2.19-1.64-4.06l-.17-.49c-.07-.19-.12-.39-.17-.58-.11-.39-.22-.79-.33-1.18-.23-.79-.36-1.63-.56-2.46-.15-.84-.26-1.7-.39-2.56-.06-.87-.15-1.75-.19-2.63-.12-3.54.22-7.21,1.15-10.62.91-3.42,2.45-6.55,4.35-9.07,1.9-2.53,4.13-4.43,6.2-5.73,1.07-.6,2.03-1.18,2.95-1.54.89-.43,1.71-.69,2.38-.91.66-.25,1.2-.36,1.56-.45.36-.09.56-.13.56-.13,0,0,.76-.22,2.17-.4,1.39-.24,3.44-.33,5.88-.18,2.44.25,5.29.93,8.12,2.32,2.84,1.38,5.63,3.46,7.95,6.1,2.33,2.63,4.18,5.81,5.37,9.12,1.21,3.32,1.69,6.76,1.79,9.92,0,.79,0,1.57-.06,2.32-.02.38-.05.75-.08,1.11l-.05.54-.05.43c-.05.44-.12.84-.18,1.21-.12.74-.24,1.33-.33,1.72-.69,2.89-1.23,4.53-2.38,6.75"/>
    <path class="cls-3" d="m89.32,224.4c-.81-1.74-1.56-3.34-2.29-4.89-.68-1.56-1.4-3.01-2.13-4.5-1.43-2.99-3.09-6-5.18-9.85-.57-1.04-1.44-2.59-2.39-4.59-.48-.99-1.05-2.06-1.55-3.26-.37-.84-.75-1.69-1.13-2.55-.51-1.11-.91-2.28-1.38-3.43-.23-.58-.46-1.16-.68-1.74-.2-.59-.41-1.18-.61-1.78-.39-1.2-.85-2.38-1.21-3.61-1.55-4.87-2.72-10-3.6-15.3-.19-1.33-.46-2.65-.59-4.01-.15-1.35-.3-2.71-.46-4.07-.19-2.74-.4-5.5-.41-8.3-.06-5.59.17-11.3,1-17.02,1.49-11.46,4.96-22.97,10.16-33.84,5.31-10.82,12.35-21,20.96-29.72,8.59-8.72,18.57-16.13,29.4-21.57,5.41-2.73,10.98-5.09,16.68-6.87,5.7-1.79,11.48-3.13,17.25-4.05,5.79-.85,11.56-1.23,17.24-1.27,5.69.05,11.27.49,16.69,1.26,5.4.89,10.66,2.01,15.67,3.54,4.99,1.57,9.8,3.29,14.28,5.42,9.04,4.07,16.86,9.24,23.54,14.55,6.68,5.33,12.12,10.96,16.49,16.27,4.38,5.3,7.63,10.33,10.13,14.53.61,1.06,1.19,2.06,1.73,3.01.52.95.97,1.87,1.4,2.71.43.84.83,1.62,1.2,2.33.33.73.63,1.39.9,1.98.54,1.18.95,2.09,1.22,2.7.14.3.24.54.3.7.06.16.09.24.09.24,0,0,.51,1.28,1.46,3.7.9,2.44,2.16,6.05,3.44,10.78,1.2,4.74,2.45,10.58,3.15,17.42.69,6.84.82,14.67-.07,23.17-.2,2.13-.58,4.28-.86,6.49-.36,2.2-.86,4.42-1.29,6.69-.59,2.24-1.12,4.54-1.8,6.84-.36,1.14-.73,2.3-1.1,3.46-.19.58-.36,1.17-.56,1.75-.22.57-.44,1.15-.66,1.73-3.43,9.28-8.25,18.73-14.77,27.54-1.56,2.25-3.36,4.36-5.12,6.53-.89,1.08-1.87,2.08-2.8,3.14l-1.42,1.57c-.48.52-1,1-1.5,1.51-1.01,1-2.02,2-3.04,3.01-1.06.94-2.12,1.89-3.19,2.85-.55.47-1.05.98-1.58,1.36l-1.74,1.32c-1.18.87-2.37,1.75-3.57,2.6-4.82,3.44-9.85,6.74-15.03,9.86-2.6,1.55-5.22,3.07-7.9,4.5-2.72,1.47-5.45,2.94-8.19,4.42-2.75,1.49-5.51,2.98-8.27,4.47-2.74,1.54-5.45,3.14-8.19,4.71l-4.1,2.37-2.05,1.19-2.02,1.24-8.07,4.99c-10.66,6.81-21.14,13.9-30.96,21.63-2.45,1.94-4.84,3.94-7.25,5.89-2.36,2.01-4.67,4.07-6.98,6.11-4.5,4.21-8.89,8.47-12.88,13.07-.98,1.17-1.95,2.34-2.92,3.51-.93,1.22-1.87,2.4-2.74,3.69-.45.62-.87,1.29-1.3,1.98l-.18.3c2.42.91-5.55-1.82,5.41,2.08l.02-.12.1-.51.22-1.04c.3-1.39.61-2.77.95-4.14.66-2.74,1.39-5.45,2.16-8.1.41-1.32.8-2.63,1.23-3.92.21-.65.42-1.29.65-1.93l.46-1.3c.49-1.36.99-2.64,1.48-3.82.12-.29.25-.58.37-.87l.21-.49c.13-.3.26-.6.4-.88.56-1.14,1.17-2.26,1.72-3.32,1.1-2.13,2.12-3.99,3-5.62.47-.6-.18-.32-.46-.31-.37.06-.73.11-1.07.16-.66.1-1.27.19-1.8.27-.98.15-1.94.29-2.9.47-.99.21-1.93.38-2.91.66-.96.26-1.9.49-2.8.79l-.47.16-.35.13c-.23.08-.46.18-.69.27-1.82.71-3.43,1.54-4.93,2.43-2.99,1.83-5.57,4.02-8.08,6.97,3.6-1.43,6.63-2.19,9.76-3.02,1.56-.39,3.16-.78,4.9-1.22.22-.05.43-.1.65-.16l.33-.08c.1-.02.26-.06.23-.05.03.02.04.04.05.05.01.03,0,.06-.02.07-.01,0-.02.01-.02,0h0s0-.03,0-.03l-.17.39c-.13.31-.27.62-.4.94-.54,1.27-1.07,2.64-1.59,4.07l-.49,1.37c-.25.67-.46,1.35-.68,2.02-.46,1.35-.86,2.72-1.29,4.1-.81,2.75-1.56,5.55-2.24,8.38-.35,1.42-.67,2.85-.98,4.29l-.23,1.09-.11.55-.03.15c10.95,3.97,3.06,1.05,5.52,1.92l.1-.17c.34-.54.69-1.1,1.1-1.66.76-1.13,1.65-2.24,2.51-3.37.91-1.1,1.83-2.2,2.75-3.3,3.79-4.37,8.04-8.49,12.41-12.58,2.25-1.98,4.5-3.99,6.8-5.95,2.36-1.91,4.7-3.86,7.09-5.76,9.62-7.58,19.95-14.57,30.46-21.29l7.97-4.93,1.99-1.23,2.03-1.17,4.05-2.34c2.7-1.55,5.39-3.14,8.1-4.66,2.74-1.48,5.47-2.96,8.19-4.43,2.74-1.48,5.47-2.95,8.18-4.42,2.77-1.48,5.48-3.04,8.14-4.64,5.33-3.2,10.46-6.58,15.41-10.11,1.24-.88,2.46-1.78,3.68-2.68l1.82-1.38c.67-.49,1.22-1.04,1.79-1.53,1.14-1.02,2.28-2.03,3.41-3.04,1.07-1.06,2.14-2.11,3.2-3.16.53-.53,1.07-1.04,1.58-1.59l1.5-1.65c.98-1.11,2.01-2.17,2.95-3.3,1.85-2.28,3.74-4.5,5.39-6.87,6.86-9.27,11.94-19.22,15.54-28.99.23-.61.46-1.22.69-1.82.21-.61.39-1.23.59-1.84.39-1.22.77-2.44,1.15-3.64.72-2.42,1.28-4.84,1.89-7.2.46-2.39.98-4.73,1.36-7.04.31-2.32.7-4.59.91-6.83.93-8.94.8-17.17.07-24.37-.74-7.2-2.06-13.35-3.32-18.33-1.34-4.97-2.67-8.78-3.62-11.34-1.01-2.55-1.54-3.9-1.54-3.9,0,0-.03-.08-.1-.25-.06-.17-.16-.41-.31-.73-.29-.64-.72-1.6-1.28-2.84-.28-.62-.6-1.32-.95-2.09-.38-.75-.8-1.57-1.26-2.46-.46-.88-.93-1.85-1.48-2.85-.57-.99-1.18-2.05-1.82-3.16-2.62-4.42-6.04-9.7-10.65-15.28-4.59-5.58-10.31-11.51-17.34-17.12-7.02-5.59-15.26-11.03-24.76-15.32-4.71-2.24-9.78-4.06-15.03-5.71-5.27-1.61-10.8-2.8-16.49-3.73-5.71-.82-11.58-1.28-17.56-1.33-5.98.04-12.05.44-18.14,1.34-6.08.96-12.16,2.37-18.16,4.26-6.01,1.88-11.87,4.36-17.56,7.23-11.41,5.73-21.9,13.52-30.94,22.7-9.05,9.18-16.47,19.89-22.05,31.28-5.49,11.44-9.13,23.57-10.7,35.62-.87,6.02-1.12,12.03-1.06,17.91.01,2.94.23,5.85.43,8.73.16,1.43.32,2.86.48,4.28.14,1.42.42,2.82.62,4.22.93,5.57,2.16,10.98,3.79,16.11.37,1.29.85,2.54,1.27,3.8.22.63.43,1.25.65,1.87.24.61.48,1.22.72,1.83.49,1.21.92,2.44,1.46,3.61.4.9.8,1.79,1.19,2.68.53,1.26,1.13,2.38,1.64,3.43,1.01,2.1,1.93,3.72,2.54,4.81,2.24,4.03,4.46,6.91,6.77,9.45,1.17,1.26,2.41,2.39,3.69,3.55,1.31,1.13,2.74,2.22,4.26,3.39"/>
    <path class="cls-4" d="m160.01,246.3c-3.02-2.42-5.5-4.46-8.2-6.42-2.69-1.97-5.6-3.86-9.35-6.18-1.02-.63-2.54-1.58-4.39-2.81-.92-.62-1.95-1.28-3-2.04-.64-.45-1.28-.9-1.93-1.36-.82-.61-1.65-1.23-2.49-1.85-1.65-1.27-3.32-2.57-4.94-3.96-3.27-2.76-6.48-5.76-9.55-9.03-6.12-6.54-11.61-14.2-15.8-22.82-4.15-8.63-6.92-18.22-8.01-28.18-.51-4.98-.75-10.07-.51-15.11.26-5.05.94-10.1,2.06-15.04,1.12-4.95,2.68-9.81,4.64-14.48,1.98-4.66,4.38-9.14,7.12-13.35,5.49-8.42,12.35-15.82,20.09-21.68,7.72-5.86,16.2-10.35,24.82-13.19,4.3-1.44,8.62-2.56,12.91-3.26,4.28-.72,8.5-1.16,12.61-1.21,8.23-.24,15.94.82,22.82,2.48,6.89,1.66,12.91,4.12,18.01,6.66,5.09,2.57,9.26,5.26,12.52,7.68.83.59,1.56,1.21,2.28,1.76.71.56,1.39,1.06,1.97,1.59,1.18,1.04,2.21,1.88,2.99,2.63,1.56,1.49,2.39,2.28,2.39,2.28,0,0,.21.19.59.6.38.4.95,1,1.7,1.78,1.49,1.57,3.56,3.97,6.03,7.19,2.4,3.27,5.15,7.4,7.74,12.48,2.58,5.07,5.04,11.09,6.78,17.96.37,1.73.87,3.48,1.15,5.31.16.91.33,1.83.49,2.76.12.93.24,1.88.36,2.83.29,1.9.34,3.86.52,5.84.03.99.05,2,.08,3.01.01.51.03,1.01.04,1.52-.01.51-.02,1.02-.03,1.54-.09,8.22-1.49,16.92-4.31,25.55-2.83,8.63-7.19,17.15-13.04,24.91-.75.96-1.5,1.92-2.26,2.89-.72.86-1.52,1.77-2.37,2.64-1.69,1.75-3.48,3.46-5.36,5.1-3.74,3.3-7.77,6.4-11.94,9.34-2.07,1.49-4.23,2.88-6.38,4.3-2.2,1.35-4.35,2.76-6.6,4.04l-3.35,1.96-3.41,1.87-6.9,3.78c-9.29,5.01-18.42,10.26-27.3,15.68-4.4,2.78-8.84,5.4-13.06,8.3-2.13,1.42-4.25,2.82-6.35,4.22-2.1,1.41-4.12,2.91-6.17,4.34-4.11,2.84-8,5.87-11.86,8.79-1.93,1.46-3.76,3.03-5.61,4.51-.92.75-1.84,1.5-2.75,2.24-.75.66-1.5,1.31-2.25,1.96-2.26,1.98-4.34,3.76-5.99,5.37-1.67,1.59-3.04,2.83-3.9,3.72-1.59,1.65-3.01,3.11-4.2,4.6-1.18,1.5-2.26,2.88-3.16,4.35-.91,1.46-1.76,2.9-2.51,4.48-.39.77-.75,1.58-1.09,2.43-.35.83-.68,1.72-.97,2.64.69-.68,1.36-1.3,2.05-1.88.66-.59,1.32-1.14,1.98-1.68,1.27-1.09,2.55-2.1,3.79-3.19,1.23-1.09,2.55-2.17,3.86-3.44,1.33-1.25,2.8-2.57,4.35-4.14.83-.85,2.18-2.05,3.8-3.59,1.6-1.55,3.63-3.29,5.84-5.22.72-.63,1.45-1.27,2.19-1.91.89-.73,1.79-1.46,2.7-2.19,1.82-1.46,3.6-2.99,5.5-4.42,3.79-2.87,7.61-5.85,11.65-8.64,2.01-1.41,4-2.88,6.07-4.27,2.08-1.38,4.16-2.77,6.26-4.17,4.16-2.85,8.56-5.45,12.9-8.19,8.77-5.36,17.82-10.56,27.02-15.53l6.91-3.79,3.49-1.92,3.44-2.01c2.31-1.31,4.53-2.77,6.79-4.16,2.21-1.47,4.44-2.9,6.59-4.44,4.32-3.04,8.5-6.26,12.45-9.74,1.98-1.73,3.88-3.54,5.72-5.45.92-.95,1.8-1.93,2.69-3.01.8-1.02,1.6-2.04,2.39-3.06,6.24-8.26,10.9-17.39,13.92-26.6,3.02-9.22,4.5-18.52,4.6-27.29.01-.55.02-1.09.03-1.64-.01-.54-.03-1.09-.04-1.62-.03-1.08-.06-2.15-.09-3.21-.19-2.11-.25-4.21-.56-6.24-.13-1.02-.26-2.02-.39-3.02-.18-.99-.35-1.97-.52-2.94-.3-1.95-.83-3.82-1.23-5.67-1.87-7.34-4.49-13.77-7.25-19.19-2.77-5.42-5.71-9.83-8.27-13.32-2.64-3.44-4.86-6-6.44-7.67-.8-.83-1.4-1.47-1.81-1.9-.4-.43-.63-.64-.63-.64,0,0-.88-.84-2.55-2.43-.83-.8-1.93-1.7-3.19-2.81-.62-.56-1.35-1.1-2.1-1.7-.76-.59-1.55-1.25-2.43-1.88-3.48-2.58-7.93-5.46-13.36-8.2-5.44-2.72-11.87-5.34-19.23-7.12-7.35-1.78-15.59-2.91-24.36-2.65-4.38.06-8.89.52-13.46,1.29-4.58.74-9.2,1.93-13.8,3.48-9.22,3.04-18.27,7.82-26.52,14.08-8.26,6.25-15.59,14.15-21.45,23.14-2.93,4.5-5.49,9.28-7.61,14.26-2.1,4.99-3.77,10.18-4.96,15.47-1.2,5.29-1.93,10.68-2.2,16.07-.25,5.4,0,10.74.54,16.04,1.16,10.59,4.12,20.86,8.56,30.09,4.47,9.22,10.34,17.38,16.8,24.29,3.24,3.45,6.62,6.61,10.05,9.5,1.71,1.46,3.45,2.82,5.17,4.15.87.65,1.74,1.29,2.6,1.93.68.48,1.35.95,2.01,1.42,1.1.79,2.17,1.47,3.13,2.12,1.93,1.27,3.51,2.25,4.57,2.89,3.92,2.37,7.19,3.87,10.41,5,3.22,1.13,6.39,1.89,10.19,2.62"/>
    <path class="cls-5" d="m253.83,220.42c4.28-2.87,7.72-5.64,10.91-8.98,3.12-3.39,6.07-7.34,8.9-12.88.73-1.52,1.89-3.77,3.08-6.67.64-1.43,1.23-3.05,1.87-4.77l.31-.83c.19-.47.35-.96.5-1.45.31-.98.63-1.97.95-2.96.34-.99.59-2.01.87-3.03.27-1.02.56-2.05.82-3.1.43-2.1.99-4.21,1.31-6.4.18-1.09.37-2.18.55-3.28.13-1.11.27-2.22.4-3.34l.2-1.69.12-1.7c.08-1.14.16-2.28.25-3.43.03-1.15.06-2.31.09-3.47l.04-1.75-.04-1.76c-.03-1.18-.06-2.36-.09-3.54-.09-1.18-.17-2.37-.26-3.56-.13-2.39-.53-4.77-.81-7.18-1.5-9.59-4.26-19.3-8.53-28.5-2.12-4.6-4.54-9.11-7.36-13.39-2.78-4.3-5.86-8.44-9.27-12.29-3.38-3.87-7.03-7.54-10.95-10.85-3.9-3.34-8.01-6.43-12.33-9.13-17.21-10.99-37.17-16.42-55.56-16.57-9.2-.2-18.04.93-26.14,2.82-8.11,1.9-15.49,4.62-21.95,7.76-12.97,6.27-22.14,13.99-28.03,19.69-2.94,2.87-5.1,5.26-6.51,6.93-1.45,1.64-2.15,2.56-2.15,2.56,0,0-.71.91-2.07,2.63-1.29,1.76-3.22,4.34-5.39,7.83-.57.85-1.12,1.79-1.68,2.78-.56.99-1.17,2.01-1.77,3.11-1.14,2.21-2.4,4.6-3.54,7.25-2.35,5.27-4.59,11.45-6.27,18.44-1.68,6.98-2.78,14.77-2.93,23.09-.08,2.11-.04,4.11-.02,6.24.05,2.12.12,4.29.3,6.52.36,4.45,1.18,9.03,2.38,13.49,1.18,4.47,2.69,8.87,4.33,13.26.42,1.09.84,2.19,1.26,3.29.47,1.12.93,2.24,1.4,3.36.45,1.14,1.03,2.21,1.54,3.32l.79,1.66.86,1.62c4.55,8.71,10.39,16.91,17.07,24.51,6.72,7.58,14.44,14.41,22.86,20.24,4.2,2.94,8.62,5.53,13.13,7.92,2.26,1.19,4.6,2.2,6.88,3.3,2.24.99,4.48,1.98,6.7,2.97,8.87,3.95,17.52,8,25.71,12.27,2.04,1.08,4.09,2.12,6.05,3.25,1.98,1.11,3.96,2.18,5.85,3.34,1.9,1.15,3.82,2.24,5.63,3.45.91.59,1.82,1.17,2.73,1.76.45.29.9.58,1.34.89l.94.66c1.57,1.12,3.13,2.12,4.49,3.19,1.37,1.04,2.66,2.02,3.83,2.91,2.24,1.89,4.11,3.35,5.26,4.42,1.08.98,2.11,1.88,3.11,2.73,1,.85,1.89,1.72,2.81,2.51,1.85,1.55,3.49,3.06,5.19,4.46.43.35.85.69,1.28,1.04l1.24,1.07c.84.71,1.69,1.41,2.57,2.11,1.75,1.42,3.5,2.98,5.51,4.62-.99-2.36-1.87-4.6-2.91-6.66-.53-1.03-1.06-2.03-1.61-3.03l-.84-1.49c-.31-.48-.62-.96-.93-1.44-1.28-1.91-2.63-3.86-4.34-5.76-.85-.96-1.7-1.98-2.7-2.96-.99-.98-2.05-1.99-3.19-3.03-1.21-1.15-3.18-2.71-5.55-4.72-1.23-.94-2.59-1.97-4.03-3.08-1.43-1.13-3.06-2.18-4.71-3.36l-.99-.69c-.46-.33-.93-.63-1.4-.93-.94-.61-1.89-1.22-2.85-1.84-1.89-1.26-3.87-2.4-5.85-3.59-1.97-1.21-4.01-2.31-6.05-3.46-2.03-1.16-4.13-2.23-6.22-3.34-8.4-4.38-17.19-8.49-26.15-12.48-2.24-.99-4.48-1.99-6.73-2.98-2.14-1.04-4.32-1.98-6.43-3.09-4.21-2.24-8.35-4.65-12.28-7.41-7.88-5.46-15.14-11.87-21.45-18.99-6.27-7.14-11.77-14.87-16-22.95l-.8-1.51-.73-1.53c-.47-1.02-1.01-2.02-1.42-3.06-.43-1.03-.86-2.06-1.29-3.08-.41-1.07-.81-2.13-1.22-3.18-1.58-4.23-3.01-8.41-4.1-12.52-1.11-4.11-1.82-8.12-2.15-12.12-.16-2-.23-4.01-.28-6.02-.02-2-.06-4.06.01-5.97.14-7.72,1.15-14.93,2.7-21.4,1.55-6.47,3.62-12.2,5.8-17.08,1.05-2.46,2.23-4.67,3.28-6.72.55-1.01,1.12-1.96,1.64-2.88.52-.92,1.02-1.79,1.55-2.58,2.01-3.24,3.8-5.63,4.99-7.26,1.25-1.59,1.92-2.44,1.92-2.44,0,0,.64-.86,1.99-2.38,1.31-1.55,3.31-3.76,6.04-6.42,5.46-5.27,13.96-12.44,25.99-18.24,5.98-2.91,12.83-5.42,20.34-7.18,7.51-1.74,15.69-2.79,24.23-2.61,17.06.15,35.52,5.18,51.47,15.36,4.01,2.5,7.81,5.37,11.43,8.46,3.64,3.07,7.01,6.47,10.15,10.06,3.17,3.57,6.02,7.41,8.59,11.39,2.61,3.96,4.86,8.14,6.82,12.4,3.96,8.52,6.51,17.5,7.9,26.39.25,2.24.64,4.44.75,6.66.08,1.11.16,2.21.24,3.3.03,1.1.05,2.19.08,3.28l.04,1.63-.04,1.62c-.03,1.08-.05,2.15-.08,3.22-.08,1.07-.15,2.13-.23,3.18l-.11,1.58-.19,1.56c-.12,1.04-.25,2.07-.37,3.1-.17,1.02-.34,2.03-.51,3.04-.29,2.02-.82,3.98-1.21,5.93-.23.97-.51,1.92-.76,2.87-.26.95-.49,1.89-.8,2.81-.29.92-.59,1.84-.88,2.74-.14.46-.29.9-.46,1.35l-.29.77c-.59,1.6-1.13,3.1-1.72,4.43-1.09,2.69-2.15,4.78-2.81,6.2-2.58,5.16-4.71,9.14-6.62,13.09-1.97,3.9-3.78,7.72-6.22,12.28"/>
    <path class="cls-1" d="m191.65,217.04c1.57-3.41,2.62-6.4,3.56-9.6.91-3.22,1.74-6.67,2.2-11.17.05-.61.11-1.37.19-2.27.03-.9.1-1.93.11-3.07.01-1.14,0-2.39-.04-3.73l-.04-1.04c-.04-.66-.08-1.33-.12-2-.1-1.34-.22-2.68-.4-4.04-.35-2.7-.84-5.44-1.59-8.17-.74-2.72-1.73-5.44-3.11-8.04-1.38-2.59-3.19-5.08-5.63-7.01-2.42-1.95-5.58-3.14-8.8-3.21-1.63-.06-3.33.24-4.86.89-1.54.64-2.92,1.59-4.13,2.69-2.4,2.22-4.18,4.96-5.62,7.81-1.44,2.86-2.54,5.88-3.43,8.97-1.76,6.19-2.73,12.66-2.68,19.31.06,1.62.06,3.25.09,4.88,0,.81.08,1.65.12,2.48.06.83.08,1.66.18,2.49.32,3.33.92,6.67,1.91,9.96,1,3.28,2.48,6.53,4.69,9.38l.84,1.06.94.98c.6.68,1.34,1.23,2.03,1.82,1.46,1.09,3.02,2.08,4.72,2.76,3.36,1.47,7.01,1.95,10.54,1.95,3.55-.04,7.02-.6,10.38-1.47,3.35-.89,6.64-2.04,9.73-3.53l4.6-2.22c.38-.19.77-.36,1.15-.56l1.11-.63,2.21-1.27c3.01-1.61,5.75-3.64,8.58-5.52,2.67-2.1,5.41-4.12,7.86-6.47,10.11-9.04,17.89-20.42,22.77-32.62,2.41-6.12,4-12.49,4.73-18.88.73-6.42.53-12.76-.34-18.87-1.78-12.24-6.42-23.49-12.7-32.74-6.29-9.27-14.14-16.55-22.21-21.82-4.04-2.64-8.14-4.8-12.17-6.52-4.04-1.7-7.99-2.98-11.76-3.93-7.56-1.85-14.33-2.4-19.85-2.33-5.53.08-9.84.61-12.73,1.15-1.45.21-2.55.5-3.29.64-.74.16-1.12.24-1.12.24,0,0-.38.08-1.11.27-.73.2-1.83.45-3.24.87-2.82.83-6.94,2.2-11.93,4.59-1.26.58-2.53,1.29-3.89,1.99-1.32.78-2.74,1.53-4.13,2.46-2.84,1.77-5.77,3.92-8.74,6.42-5.92,5.01-11.94,11.59-16.87,19.9-4.93,8.28-8.74,18.3-10.27,29.38-.4,2.82-.57,5.62-.64,8.5-.06,2.87.04,5.81.35,8.77.31,2.94.79,5.87,1.39,8.8.61,2.92,1.29,5.88,2.25,8.84,1.85,5.84,4.28,11.64,7.38,17.21,3.09,5.56,6.91,10.92,11.43,15.68,4.41,4.73,9.26,9.21,14.48,13.31,5.25,4.07,10.88,7.74,16.81,10.9,2.95,1.61,6.01,3.03,9.06,4.43,2.99,1.39,5.99,2.79,9,4.18,6.06,2.7,11.92,5.81,17.84,8.81,11.69,6.25,23.18,12.89,33.81,20.45,10.61,7.54,20.45,15.96,28.27,25.63,1.88,2.46,3.71,4.95,5.15,7.61l.52.92.08.17c.08.17.04.08.05.1h.01s0,.01,0,.01c0,0,0,0,0,0l-.24-.16-.97-.63c-2.61-1.64-5.29-3.11-8.04-4.37-.69-.3-1.37-.63-2.07-.91-.7-.28-1.39-.55-2.09-.83-.71-.24-1.41-.49-2.11-.73-.35-.12-.7-.25-1.06-.34l-.39-.11c-2.87-.9-5.59-1.32-7.86-1.61-.64-.05-1.24-.09-1.82-.13-.49-.04-.96-.07-1.42-.1-.22-.01-.43-.03-.65-.04l-.28-.02h-.09s.06.04.08.06l.22.15c.27.19.53.37.79.55.25.18.53.36.67.49.17.14.32.3.43.41.07.07.14.13.2.2.25.27.48.51.67.74,1.41,1.69,2.39,3.43,3.16,5.1.77,1.68,1.37,3.28,1.83,4.88.94,3.19,1.51,6.31,1.84,10.05-.32-3.74-.77-6.87-1.57-10.12-.4-1.63-.92-3.27-1.62-5.01-.71-1.73-1.64-3.56-3.05-5.38-.18-.25-.42-.51-.68-.81-.06-.07-.13-.14-.21-.22-.04-.04-.01-.01-.02-.02.01,0,0,0,0,0,0,0,.03.02,0,0,.44.04.9.09,1.39.14,2.21.35,4.84.84,7.62,1.81l.37.12c.35.1.69.24,1.03.36.68.26,1.36.52,2.04.78,1.35.57,2.69,1.16,4.01,1.82,2.64,1.32,5.23,2.82,7.73,4.49l.93.64.24.16c.17.11.31.25.48.37l.98.73.98.74,1.1.9,1.11.9c.15.15.04-.04.04-.08l-.06-.22-.1-.34c-.39-1.24-.61-2.28-1.19-3.56l-.76-1.84c-.07-.18-.11-.24-.16-.33l-.14-.26-.28-.52c-1.44-2.83-3.25-5.44-5.13-8.03-7.77-10.13-17.6-18.91-28.19-26.78-10.62-7.89-22.1-14.82-33.8-21.34-5.92-3.12-11.79-6.37-17.86-9.18-3.01-1.46-6.01-2.91-9.01-4.36-2.96-1.41-5.88-2.82-8.71-4.41-5.67-3.14-11.04-6.72-16.02-10.69-4.96-3.99-9.57-8.34-13.78-12.97-8.39-9.04-13.96-20.05-17.37-31.11-.86-2.72-1.49-5.53-2.05-8.32-.54-2.79-.98-5.57-1.25-8.3-.27-2.71-.34-5.41-.27-8.09.08-2.67.26-5.34.64-7.86,1.49-10.29,5.06-19.56,9.68-27.23,4.61-7.69,10.21-13.78,15.71-18.41,2.75-2.32,5.48-4.3,8.11-5.94,1.29-.86,2.61-1.55,3.83-2.28,1.26-.64,2.44-1.31,3.61-1.84,4.63-2.2,8.44-3.47,11.05-4.23,1.3-.39,2.32-.62,3-.8.68-.18,1.03-.25,1.03-.25,0,0,.35-.07,1.04-.22.69-.13,1.7-.4,3.05-.59,2.67-.5,6.66-.98,11.79-1.06,5.12-.07,11.39.44,18.38,2.15,3.48.89,7.15,2.05,10.89,3.62,3.73,1.59,7.53,3.58,11.28,6.02,7.5,4.86,14.79,11.6,20.68,20.17,5.86,8.56,10.22,18.96,11.95,30.34.84,5.68,1.07,11.6.44,17.48-.64,5.9-2.05,11.84-4.26,17.59-4.48,11.46-11.68,22.28-21.16,30.96-2.29,2.26-4.88,4.19-7.39,6.23-2.67,1.82-5.26,3.79-8.11,5.36l-2.1,1.24-1.05.62c-.36.2-.73.37-1.09.55l-4.37,2.19c-2.9,1.45-5.91,2.54-8.99,3.41-3.08.85-6.22,1.4-9.33,1.48-3.1.05-6.2-.33-8.95-1.49-1.4-.53-2.67-1.32-3.88-2.18-.56-.48-1.18-.91-1.68-1.47l-.79-.79-.71-.88c-1.89-2.35-3.26-5.16-4.22-8.13-.96-2.97-1.58-6.08-1.94-9.23-.12-.78-.14-1.58-.22-2.37-.05-.79-.15-1.57-.16-2.38-.05-1.61-.09-3.21-.18-4.81-.17-6.25.63-12.54,2.18-18.48.78-2.97,1.77-5.87,3.06-8.57,1.28-2.7,2.86-5.23,4.9-7.2,2.03-1.97,4.58-3.21,7.29-3.15,2.77,0,5.46.92,7.65,2.58,2.2,1.65,3.94,3.88,5.31,6.29,1.36,2.41,2.39,5,3.19,7.62.8,2.62,1.36,5.29,1.78,7.93.21,1.32.37,2.65.51,3.96.06.66.11,1.31.17,1.97l.07,1.03c.08,1.32.13,2.55.15,3.68.02,1.13,0,2.14,0,3.02-.04.89-.08,1.64-.11,2.24-.3,4.46-.95,7.92-1.71,11.16-.8,3.23-1.72,6.26-3.29,9.68"/>
    <path class="cls-3" d="m178.21,160.49c-7.81,0-14.14,14-14.14,31.26s6.33,31.26,14.14,31.26,14.14-14,14.14-31.26-6.33-31.26-14.14-31.26"/>
    <path class="cls-3" d="m166.61,133.41c0-6.4,5.19-11.6,11.6-11.6s11.6,5.19,11.6,11.6-5.19,11.6-11.6,11.6-11.6-5.19-11.6-11.6"/>
    <path class="cls-2" d="m173.46,135.16c-.3-.29-.78.03-.62.42.86,2.14,2.95,3.65,5.4,3.65s4.47-1.46,5.35-3.55c.16-.38-.32-.71-.62-.42-1.7,1.65-5.3,3.99-9.51-.1"/>
    <path class="cls-2" d="m174.79,131.33c0,.8-.38,1.44-.86,1.44s-.85-.64-.85-1.44.38-1.44.85-1.44.86.64.86,1.44"/>
    <path class="cls-2" d="m183.34,131.33c0,.8-.38,1.44-.86,1.44s-.85-.64-.85-1.44.38-1.44.85-1.44.86.64.86,1.44"/>
  </g>
  <g>
    <g>
      <path class="cls-4" d="m92.76,371.51c.04-.13.14-.24.29-.33.15-.09.32-.12.49-.1.17.02.32.08.42.16.11.09.14.22.1.39-.78,3.14-2.13,6.33-4.05,9.57-1.92,3.24-4.19,6.2-6.82,8.85-2.64,2.66-5.53,4.81-8.69,6.47-3.16,1.65-6.37,2.48-9.64,2.48-3.57,0-6.6-.66-9.08-1.99-2.48-1.33-4.47-3.1-5.98-5.32-1.5-2.22-2.57-4.82-3.2-7.81-.63-2.98-.86-6.14-.69-9.47.17-3.33.7-6.75,1.57-10.26.87-3.5,2.02-6.91,3.46-10.22,1.44-3.31,3.14-6.43,5.1-9.37,1.96-2.94,4.12-5.5,6.47-7.68,2.35-2.18,4.86-3.88,7.51-5.1,2.65-1.22,5.42-1.79,8.3-1.7,2.18.09,3.95.75,5.32,1.99,1.37,1.24,2.39,2.81,3.07,4.7.67,1.89,1.05,3.99,1.14,6.27.09,2.29-.03,4.54-.36,6.76-.33,2.22-.84,4.27-1.54,6.14-.7,1.87-1.48,3.33-2.35,4.38-.57.7-1.09,1.18-1.57,1.44-.48.3-.87.39-1.18.26-.31-.13-.52-.34-.65-.62-.13-.28-.14-.6-.03-.95.11-.35.34-.59.69-.72.61-.22,1.07-.37,1.37-.46.31-.09.57-.24.78-.46.61-.61,1.19-1.67,1.73-3.17.54-1.5.97-3.18,1.27-5.03.3-1.85.43-3.77.39-5.75-.04-1.98-.35-3.79-.91-5.42-.57-1.63-1.44-2.95-2.61-3.95-1.18-1-2.77-1.48-4.77-1.44-2.18.09-4.34,1.04-6.5,2.84-2.16,1.81-4.18,4.16-6.08,7.05-1.89,2.9-3.61,6.19-5.16,9.9-1.55,3.7-2.81,7.48-3.79,11.33-.98,3.85-1.61,7.63-1.89,11.33-.28,3.7-.12,7,.49,9.9.61,2.9,1.72,5.24,3.33,7.02,1.61,1.78,3.83,2.7,6.66,2.74,3.05.04,6.06-.7,9.05-2.22,2.98-1.52,5.74-3.48,8.26-5.88,2.52-2.39,4.69-5.06,6.5-8,1.81-2.94,3.06-5.8,3.76-8.59"/>
      <path class="cls-4" d="m111.64,371.51c.09-.3.35-.45.78-.43.43.02.61.21.52.56-.26,1.05-.62,2.34-1.08,3.89-.46,1.55-1.01,3.19-1.67,4.93-.65,1.74-1.39,3.49-2.22,5.23-.83,1.74-1.75,3.31-2.78,4.7-1.02,1.39-2.15,2.53-3.36,3.4-1.22.87-2.53,1.31-3.92,1.31-2.7,0-4.68-.53-5.94-1.6-1.26-1.07-2.07-2.46-2.42-4.18-.35-1.72-.36-3.65-.03-5.78.33-2.13.75-4.29,1.27-6.47.48-1.87.99-3.71,1.54-5.52.54-1.81,1.12-3.62,1.73-5.45h4.18c1.13,0,2.01.07,2.65.2.63.13,1.05.39,1.24.78.2.39.16,1-.1,1.83-.35,1.22-.76,2.64-1.24,4.25-.48,1.61-.96,3.3-1.44,5.06-.48,1.76-.89,3.49-1.24,5.19-.35,1.7-.57,3.22-.65,4.57-.09,1.35,0,2.45.26,3.3.26.85.78,1.27,1.57,1.27.57,0,1.13-.12,1.7-.36.57-.24,1.07-.56,1.5-.95,1.22-1.13,2.33-2.59,3.33-4.38,1-1.79,1.88-3.64,2.65-5.55.76-1.92,1.41-3.76,1.96-5.52.54-1.76.95-3.19,1.21-4.28m-12.21-7.25c-1.22,0-2.25-.47-3.1-1.4-.85-.94-1.27-2.08-1.27-3.43s.42-2.43,1.27-3.36c.85-.94,1.88-1.4,3.1-1.4s2.32.47,3.17,1.4c.85.94,1.27,2.06,1.27,3.36s-.42,2.49-1.27,3.43c-.85.94-1.91,1.4-3.17,1.4"/>
      <path class="cls-4" d="m136.91,371.51c.04-.13.14-.24.29-.33.15-.09.3-.12.46-.1.15.02.29.08.43.16.13.09.17.22.13.39-.26,1.05-.63,2.4-1.11,4.05-.48,1.66-1.07,3.42-1.76,5.29-.7,1.87-1.48,3.76-2.35,5.65-.87,1.9-1.84,3.61-2.91,5.16-1.07,1.55-2.22,2.8-3.46,3.76-1.24.96-2.56,1.44-3.95,1.44-2.7,0-4.74-.5-6.11-1.5-1.37-1-2.29-2.3-2.74-3.89-.46-1.59-.57-3.36-.33-5.32.24-1.96.64-3.89,1.21-5.78.57-1.89,1.18-3.67,1.83-5.32.65-1.65,1.18-2.96,1.57-3.92-.74-.48-1.48-.93-2.22-1.37-.74-.43-1.46-.85-2.15-1.24l-.85,3.46c-.04.13-.15.23-.33.29-.17.07-.34.09-.49.07-.15-.02-.28-.08-.39-.16-.11-.09-.14-.22-.1-.39.13-.52.28-1.13.46-1.83.17-.7.35-1.41.52-2.16-.87-.65-1.59-1.46-2.16-2.42-.57-.96-.61-2-.13-3.14.35-.78.83-1.39,1.44-1.83.74-.43,1.36-.62,1.86-.55.5.07.9.23,1.21.49.3.26.51.53.62.82.11.28.14.38.1.29-.22.96-.45,1.92-.69,2.87-.24.96-.49,1.92-.75,2.87.43.26,1.05.62,1.86,1.08.8.46,1.67.96,2.58,1.5.91.54,1.85,1.1,2.81,1.67.96.57,1.84,1.09,2.65,1.57.8.48,1.49.89,2.06,1.24.57.35.92.54,1.05.59-.22.61-.58,1.47-1.08,2.58-.5,1.11-1.02,2.33-1.57,3.66-.55,1.33-1.05,2.72-1.5,4.18-.46,1.46-.77,2.81-.95,4.05-.18,1.24-.15,2.32.07,3.23.22.92.74,1.5,1.57,1.76,1.13.35,2.35-.09,3.66-1.31,1.22-1.13,2.35-2.69,3.4-4.67,1.05-1.98,1.99-4.05,2.84-6.2.85-2.16,1.57-4.21,2.15-6.17.59-1.96,1.01-3.48,1.27-4.57"/>
      <path class="cls-4" d="m163.11,371.51c.09-.3.35-.45.78-.42.43.02.61.21.52.55-.39,1.57-.91,3.28-1.57,5.13-.65,1.85-1.43,3.7-2.32,5.55-.89,1.85-1.92,3.64-3.07,5.35-1.15,1.72-2.44,3.25-3.85,4.57-1.42,1.33-2.96,2.37-4.64,3.14-1.68.76-3.49,1.1-5.45,1.01-2.87-.13-5.16-.78-6.86-1.96-1.7-1.18-2.91-2.68-3.62-4.51-.72-1.83-1-3.86-.85-6.11.15-2.24.64-4.5,1.47-6.76.65-1.78,1.51-3.48,2.58-5.1,1.07-1.61,2.31-3,3.72-4.18,1.41-1.17,2.98-2.07,4.7-2.68,1.72-.61,3.58-.81,5.58-.59,1.31.13,2.32.53,3.04,1.21.72.68,1.22,1.46,1.5,2.35.28.89.35,1.85.2,2.87-.15,1.02-.45,1.97-.88,2.84-.18.35-.42.57-.72.65-.31.09-.65.11-1.05.07-.39-.04-.82-.12-1.27-.23-.46-.11-.88-.21-1.27-.29.7-.43,1.28-1.07,1.76-1.89.48-.83.77-1.64.88-2.45.11-.8-.01-1.52-.36-2.16-.35-.63-.98-.97-1.9-1.01-.87.09-1.84.81-2.91,2.16-1.07,1.35-2.06,3.03-2.97,5.03-.92,2-1.71,4.17-2.38,6.5-.68,2.33-1.07,4.49-1.18,6.47-.11,1.98.13,3.65.72,5,.59,1.35,1.67,2.03,3.23,2.03,2.61.04,4.94-.71,6.99-2.25,2.05-1.54,3.83-3.45,5.36-5.72,1.52-2.26,2.79-4.68,3.79-7.25,1-2.57,1.76-4.88,2.29-6.92"/>
      <path class="cls-4" d="m184.53,371.44c.04-.13.14-.24.29-.33.15-.09.3-.12.46-.1.15.02.29.08.42.16.13.09.17.22.13.39-.26,1.04-.63,2.36-1.11,3.95-.48,1.59-1.04,3.25-1.7,4.96-.65,1.72-1.4,3.45-2.25,5.19-.85,1.74-1.81,3.3-2.87,4.67-1.07,1.37-2.23,2.5-3.49,3.4-1.26.89-2.61,1.34-4.05,1.34-2.31,0-4.14-.45-5.49-1.34-1.35-.89-2.34-2.07-2.97-3.53-.63-1.46-.98-3.14-1.05-5.03-.07-1.89.02-3.85.26-5.88.24-2.02.58-4.03,1.01-6.01.44-1.98.83-3.82,1.18-5.52.74-3.83,1.54-7.65,2.38-11.46.85-3.81,1.69-7.41,2.51-10.81.48-2.09,1.17-3.88,2.06-5.35.89-1.48,1.88-2.7,2.97-3.66,1.09-.96,2.23-1.65,3.43-2.09,1.2-.44,2.39-.63,3.56-.59,1.61.09,3.05.59,4.31,1.5,1.26.91,2.13,2.24,2.61,3.98.26,1,.35,2.05.26,3.16-.09,1.11-.29,2.25-.62,3.42-.33,1.18-.74,2.35-1.24,3.52-.5,1.18-1.01,2.31-1.54,3.39-.96,1.87-2,3.75-3.14,5.64-1.13,1.89-2.28,3.66-3.43,5.32-1.15,1.65-2.24,3.13-3.27,4.44-1.02,1.3-1.88,2.3-2.58,3-.22,1.13-.42,2.24-.62,3.33-.2,1.09-.4,2.15-.62,3.2-.26,1.61-.48,3.29-.65,5.03-.17,1.74-.25,3.34-.23,4.79s.21,2.65.56,3.59c.35.94.94,1.4,1.76,1.4.96-.04,1.9-.48,2.84-1.31.94-.83,1.85-1.88,2.74-3.17.89-1.28,1.72-2.72,2.48-4.31.76-1.59,1.46-3.16,2.09-4.7.63-1.54,1.17-2.99,1.6-4.34.43-1.35.76-2.44.98-3.27m-6.27-28.41c-.61,1.26-1.18,2.71-1.7,4.34-.52,1.63-1,3.33-1.44,5.09-.44,1.76-.82,3.52-1.14,5.26-.33,1.74-.62,3.36-.88,4.87-.26,1.5-.48,2.81-.65,3.92-.17,1.11-.31,1.91-.39,2.38.74-.87,1.57-1.93,2.48-3.17.91-1.24,1.85-2.58,2.81-4.02.96-1.44,1.9-2.95,2.84-4.54.94-1.59,1.8-3.17,2.58-4.74.17-.39.4-.88.69-1.47.28-.59.55-1.23.82-1.93.26-.7.51-1.43.75-2.19.24-.76.4-1.51.49-2.25.26-1.65.11-2.86-.46-3.62-.57-.76-1.29-1.16-2.16-1.21-.83-.04-1.68.23-2.55.82-.87.59-1.57,1.4-2.09,2.45"/>
      <path class="cls-4" d="m210.79,371.44c.09-.3.35-.45.78-.43.44.02.61.21.52.56-.39,1.57-.91,3.28-1.57,5.13-.65,1.85-1.43,3.7-2.32,5.55-.89,1.85-1.92,3.64-3.07,5.36-1.15,1.72-2.44,3.25-3.85,4.58-1.42,1.33-2.96,2.39-4.64,3.17-1.68.78-3.49,1.13-5.45,1.04-2.88-.13-5.16-.78-6.86-1.96-1.7-1.18-2.91-2.68-3.63-4.51-.72-1.83-1-3.86-.85-6.11.15-2.24.64-4.5,1.47-6.76.78-2.13,1.84-4.12,3.17-5.94s2.91-3.33,4.74-4.51c1.13-.7,2.37-1.25,3.72-1.67,1.35-.41,2.68-.6,3.99-.55.91.04,1.79.23,2.61.55.83.33,1.52.78,2.09,1.37.57.59.99,1.28,1.27,2.09.28.81.36,1.69.23,2.64-.22,1.53-.76,2.82-1.63,3.89-.87,1.07-1.94,1.94-3.2,2.61-1.26.68-2.65,1.16-4.15,1.47-1.5.31-2.95.48-4.34.52-.52,1.78-.91,3.51-1.17,5.2-.26,1.69-.33,3.21-.2,4.55.13,1.34.51,2.44,1.14,3.29.63.84,1.56,1.27,2.77,1.27,1.74.04,3.35-.3,4.83-1.04,1.48-.74,2.85-1.71,4.12-2.91,1.26-1.2,2.39-2.58,3.4-4.15,1-1.57,1.9-3.18,2.71-4.83.81-1.65,1.48-3.31,2.02-4.96.54-1.65.99-3.16,1.34-4.51m-12.28-4.51c-1.05-.04-2.02.37-2.91,1.25-.89.88-1.7,1.91-2.42,3.12-.72,1.2-1.33,2.45-1.83,3.74-.5,1.29-.88,2.33-1.14,3.12,1.22-.04,2.42-.21,3.59-.49,1.18-.28,2.24-.71,3.2-1.28s1.76-1.3,2.42-2.2c.65-.9,1.07-2,1.24-3.32.22-1.49.09-2.51-.39-3.05-.48-.55-1.07-.84-1.76-.89"/>
      <path class="cls-4" d="m271.57,371.51c.09-.3.35-.45.78-.42.43.02.61.21.52.55-.26,1.05-.62,2.34-1.08,3.89-.46,1.55-1.01,3.19-1.66,4.93-.65,1.74-1.4,3.48-2.22,5.22-.83,1.74-1.75,3.31-2.77,4.7-1.03,1.39-2.15,2.53-3.36,3.4-1.22.87-2.53,1.31-3.92,1.31-2.05,0-3.63-.38-4.74-1.14-1.11-.76-1.92-1.78-2.42-3.07-.5-1.28-.73-2.75-.69-4.41.04-1.65.2-3.37.46-5.16-.65,1.92-1.36,3.83-2.12,5.75-.76,1.92-1.58,3.61-2.45,5.1-1,1.74-2.1,2.98-3.3,3.72-1.2.74-2.41,1.07-3.63.98-2.57-.17-4.46-1-5.68-2.48-1.22-1.48-1.98-3.23-2.29-5.26-.3-2.03-.28-4.11.07-6.27.35-2.16.81-4.02,1.37-5.58.52-1.57,1.17-3.06,1.96-4.47.78-1.42,1.72-2.66,2.81-3.72,1.09-1.07,2.37-1.89,3.85-2.48,1.48-.59,3.2-.84,5.16-.75,1.52.09,3.01.43,4.47,1.01,1.46.59,2.84,1.35,4.15,2.29,1.31.94,2.51,2.01,3.62,3.23,1.11,1.22,2.08,2.51,2.91,3.85-.17.61-.45,1.43-.82,2.45-.37,1.02-.75,2.15-1.14,3.36-.39,1.22-.75,2.45-1.08,3.69-.33,1.24-.54,2.36-.65,3.36-.11,1-.05,1.83.17,2.48.22.65.67.98,1.37.98.57,0,1.13-.12,1.7-.36.57-.24,1.07-.56,1.5-.95,1.22-1.13,2.33-2.59,3.33-4.38,1-1.78,1.88-3.64,2.65-5.55.76-1.92,1.41-3.76,1.96-5.52.54-1.76.95-3.19,1.21-4.28m-30.11,22.01c.65.04,1.35-.42,2.09-1.4.74-.98,1.49-2.22,2.25-3.72.76-1.5,1.5-3.18,2.22-5.03.72-1.85,1.38-3.64,1.99-5.36.61-1.72,1.14-3.29,1.6-4.7.46-1.41.79-2.45,1.01-3.1-1-1.31-2.02-1.9-3.07-1.76-1.04.09-2.05.77-3.01,2.06-.96,1.28-1.84,2.85-2.65,4.7-.8,1.85-1.49,3.83-2.06,5.94-.57,2.11-.98,4.08-1.24,5.91-.26,1.83-.34,3.35-.23,4.57.11,1.22.47,1.85,1.08,1.89"/>
      <path class="cls-4" d="m296.85,371.51c.04-.13.14-.24.29-.33.15-.09.31-.12.46-.1.15.02.29.08.42.16.13.09.17.22.13.39-.26,1.05-.63,2.4-1.11,4.05-.48,1.66-1.07,3.42-1.76,5.29-.7,1.87-1.48,3.76-2.35,5.65-.87,1.9-1.84,3.61-2.91,5.16-1.07,1.55-2.22,2.8-3.46,3.76-1.24.96-2.56,1.44-3.95,1.44-2.7,0-4.74-.5-6.11-1.5-1.37-1-2.29-2.3-2.74-3.89-.46-1.59-.57-3.36-.33-5.32.24-1.96.64-3.89,1.21-5.78.57-1.89,1.18-3.67,1.83-5.32.65-1.65,1.18-2.96,1.57-3.92-.74-.48-1.48-.93-2.22-1.37-.74-.43-1.46-.85-2.16-1.24l-.85,3.46c-.04.13-.15.23-.33.29-.17.07-.34.09-.49.07-.15-.02-.28-.08-.39-.16-.11-.09-.14-.22-.1-.39.13-.52.28-1.13.46-1.83.17-.7.35-1.41.52-2.16-.87-.65-1.59-1.46-2.16-2.42-.57-.96-.61-2-.13-3.14.35-.78.83-1.39,1.44-1.83.74-.43,1.36-.62,1.86-.55.5.07.9.23,1.21.49.3.26.51.53.62.82.11.28.14.38.1.29-.22.96-.45,1.92-.68,2.87-.24.96-.49,1.92-.75,2.87.43.26,1.05.62,1.86,1.08.81.46,1.67.96,2.58,1.5.92.54,1.85,1.1,2.81,1.67.96.57,1.84,1.09,2.65,1.57.81.48,1.49.89,2.06,1.24.57.35.91.54,1.04.59-.22.61-.58,1.47-1.08,2.58-.5,1.11-1.02,2.33-1.57,3.66-.54,1.33-1.04,2.72-1.5,4.18-.46,1.46-.77,2.81-.95,4.05-.18,1.24-.15,2.32.07,3.23.22.92.74,1.5,1.57,1.76,1.13.35,2.35-.09,3.66-1.31,1.22-1.13,2.35-2.69,3.4-4.67,1.05-1.98,1.99-4.05,2.84-6.2.85-2.16,1.57-4.21,2.16-6.17.59-1.96,1.01-3.48,1.27-4.57"/>
      <path class="cls-4" d="m323.11,371.44c.09-.3.35-.45.78-.43.44.02.61.21.52.56-.39,1.57-.91,3.28-1.57,5.13-.65,1.85-1.43,3.7-2.32,5.55-.89,1.85-1.92,3.64-3.07,5.36-1.15,1.72-2.44,3.25-3.85,4.58-1.42,1.33-2.96,2.39-4.64,3.17-1.68.78-3.49,1.13-5.45,1.04-2.88-.13-5.16-.78-6.86-1.96-1.7-1.18-2.91-2.68-3.62-4.51-.72-1.83-1-3.86-.85-6.11.15-2.24.64-4.5,1.47-6.76.78-2.13,1.84-4.12,3.17-5.94,1.33-1.83,2.91-3.33,4.74-4.51,1.13-.7,2.37-1.25,3.72-1.67,1.35-.41,2.68-.6,3.99-.55.91.04,1.78.23,2.61.55.83.33,1.52.78,2.09,1.37.57.59.99,1.28,1.27,2.09.28.81.36,1.69.23,2.64-.22,1.53-.76,2.82-1.63,3.89-.87,1.07-1.94,1.94-3.2,2.61-1.26.68-2.65,1.16-4.15,1.47-1.5.31-2.95.48-4.34.52-.52,1.78-.91,3.51-1.17,5.2-.26,1.69-.33,3.21-.2,4.55.13,1.34.51,2.44,1.14,3.29.63.84,1.56,1.27,2.77,1.27,1.74.04,3.35-.3,4.83-1.04,1.48-.74,2.85-1.71,4.12-2.91,1.26-1.2,2.39-2.58,3.4-4.15,1-1.57,1.9-3.18,2.71-4.83.81-1.65,1.48-3.31,2.03-4.96.54-1.65.99-3.16,1.34-4.51m-12.28-4.51c-1.05-.04-2.02.37-2.91,1.25-.89.88-1.7,1.91-2.42,3.12-.72,1.2-1.33,2.45-1.83,3.74-.5,1.29-.88,2.33-1.14,3.12,1.22-.04,2.42-.21,3.59-.49,1.18-.28,2.24-.71,3.2-1.28s1.76-1.3,2.42-2.2c.65-.9,1.07-2,1.24-3.32.22-1.49.09-2.51-.39-3.05-.48-.55-1.07-.84-1.76-.89"/>
      <path class="cls-4" d="m236.91,371.51c.09-.3.35-.45.78-.42.43.02.61.21.52.55-.39,1.57-.91,3.28-1.57,5.13-.65,1.85-1.43,3.7-2.32,5.55-.89,1.85-1.92,3.64-3.07,5.35-1.15,1.72-2.44,3.25-3.85,4.57-1.42,1.33-2.96,2.37-4.64,3.14-1.68.76-3.49,1.1-5.45,1.01-2.87-.13-5.16-.78-6.86-1.96-1.7-1.18-2.91-2.68-3.62-4.51-.72-1.83-1-3.86-.85-6.11.15-2.24.64-4.5,1.47-6.76.65-1.78,1.51-3.48,2.58-5.1,1.07-1.61,2.31-3,3.72-4.18,1.41-1.17,2.98-2.07,4.7-2.68,1.72-.61,3.58-.81,5.58-.59,1.31.13,2.32.53,3.04,1.21.72.68,1.22,1.46,1.5,2.35.28.89.35,1.85.2,2.87-.15,1.02-.45,1.97-.88,2.84-.18.35-.42.57-.72.65-.31.09-.65.11-1.05.07-.39-.04-.82-.12-1.27-.23-.46-.11-.88-.21-1.27-.29.7-.43,1.28-1.07,1.76-1.89.48-.83.77-1.64.88-2.45.11-.8-.01-1.52-.36-2.16-.35-.63-.98-.97-1.9-1.01-.87.09-1.84.81-2.91,2.16-1.07,1.35-2.06,3.03-2.97,5.03-.92,2-1.71,4.17-2.38,6.5-.68,2.33-1.07,4.49-1.18,6.47-.11,1.98.13,3.65.72,5,.59,1.35,1.67,2.03,3.23,2.03,2.61.04,4.94-.71,6.99-2.25,2.05-1.54,3.83-3.45,5.36-5.72,1.52-2.26,2.79-4.68,3.79-7.25,1-2.57,1.76-4.88,2.29-6.92"/>
    </g>
    <g>
      <path class="cls-3" d="m121.07,429.1v.74h-9.79v-.74c.87-.08,1.4-.16,1.59-.24.69-.24,1.03-.89,1.03-1.98v-14.87l-7.43,17.82h-.8l-7.38-17.38-.06,13.72c0,1.08.2,1.84.59,2.27.39.43,1.19.65,2.39.65v.74h-6.9v-.74c1.16-.1,1.9-.29,2.21-.59.31-.3.47-.89.47-1.77v-14.01c0-.81-.18-1.36-.54-1.65-.36-.29-1.08-.44-2.14-.44v-.74h7.5l5.93,13.92,5.9-13.92h7.43v.74c-.96,0-1.6.13-1.92.38-.45.37-.68,1.15-.68,2.33v13.04c0,1.1.19,1.81.56,2.12.29.26.97.45,2.04.59Z"/>
      <path class="cls-3" d="m133.61,426.15l.71.42c-.89,1.37-1.78,2.33-2.67,2.88-.9.55-1.95.83-3.17.83-1.63,0-3-.57-4.1-1.71-1.26-1.32-1.89-3.16-1.89-5.53,0-2.13.58-3.85,1.74-5.17,1.16-1.32,2.61-1.98,4.34-1.98s3.07.56,4.01,1.68c1.06,1.26,1.59,2.94,1.59,5.04h-7.43c0,1.52.24,2.76.71,3.71.61,1.23,1.55,1.84,2.83,1.84.59,0,1.14-.14,1.64-.43.5-.29,1.07-.81,1.7-1.57Zm-7.02-4.63h3.95c0-.77-.01-1.4-.04-1.9-.03-.5-.1-.97-.22-1.4-.12-.43-.28-.76-.47-.97-.28-.3-.65-.44-1.12-.44-.65,0-1.13.28-1.45.83-.43.75-.65,2.05-.65,3.89Z"/>
      <path class="cls-3" d="m150.75,429.1v.74h-6.93v-.71c.92-.08,1.39-.64,1.39-1.68v-7.14c0-.69-.07-1.2-.21-1.53-.26-.61-.73-.91-1.42-.91-.51,0-1.05.24-1.61.71s-.84.8-.84,1v7.86c0,.45.07.79.21,1.03.22.37.63.59,1.24.65v.74h-7.11v-.71c.61-.12,1-.26,1.18-.41.26-.24.38-.69.38-1.36v-8.67c0-.65-.1-1.08-.31-1.28-.21-.21-.62-.36-1.25-.46v-.71h5.66v2.12c.41-.63.86-1.13,1.35-1.5.84-.65,1.8-.97,2.88-.97,1,0,1.85.29,2.56.85.92.75,1.38,1.84,1.38,3.3v7.39c0,.51.06.87.18,1.09.22.39.64.59,1.27.59Z"/>
      <path class="cls-3" d="m160.25,416.23v1.3h-2.77v8.88c0,.47.04.81.12,1,.18.45.52.68,1.03.68.31,0,.59-.1.83-.29.24-.2.52-.61.86-1.24l.74.32c-.47.96-.93,1.67-1.39,2.12-.79.79-1.77,1.18-2.95,1.18-1.36,0-2.31-.43-2.86-1.3-.31-.51-.47-1.11-.47-1.8v-9.56h-1.53v-.8c.89-.75,1.64-1.46,2.27-2.15.81-.89,1.68-2,2.63-3.33h.74v4.99h2.77Z"/>
      <path class="cls-3" d="m175.03,427.95l.44.63c-.45.54-.94.96-1.48,1.25-.53.3-1.12.45-1.77.45-.9,0-1.55-.24-1.95-.72-.22-.26-.39-.72-.53-1.38-.83.84-1.76,1.43-2.8,1.77-.67.22-1.3.33-1.89.33-.83,0-1.54-.25-2.15-.74-.73-.59-1.09-1.4-1.09-2.42,0-1.38.8-2.52,2.39-3.43,1.02-.59,2.87-1.29,5.55-2.1v-2.16c0-.85-.16-1.47-.47-1.86-.39-.49-1.1-.74-2.12-.74-.49,0-.9.11-1.24.34-.33.23-.5.47-.5.72,0,.16.15.42.44.8s.44.78.44,1.21c0,.51-.22.93-.65,1.27-.33.26-.78.38-1.33.38-.63,0-1.11-.17-1.45-.5s-.5-.84-.5-1.5c0-1,.46-1.85,1.39-2.54,1-.75,2.38-1.12,4.13-1.12s3.17.34,4.26,1.02c1.09.68,1.64,1.69,1.64,3.02v7.7c0,.2.03.37.1.52.07.15.25.22.55.22.12,0,.22-.04.29-.12l.29-.29Zm-5.28-1.06v-4.28c-1.09.24-1.97.67-2.63,1.31-.66.64-1,1.39-1,2.26,0,.51.13.97.39,1.37.26.4.63.6,1.13.6.46,0,.88-.15,1.28-.44.2-.14.48-.41.83-.83Z"/>
      <path class="cls-3" d="m183.35,429.1v.74h-7.05v-.74c.51,0,.9-.21,1.18-.62.22-.33.32-.71.32-1.15v-15c0-.53-.13-.95-.4-1.25-.27-.3-.63-.46-1.11-.46v-.74h5.6v17.44c0,.53.1.96.31,1.28.21.32.58.49,1.14.49Z"/>
      <path class="cls-3" d="m213.8,429.1v.74h-10.03v-.74c1-.12,1.64-.26,1.92-.41.49-.29.74-.86.74-1.68v-6.79h-7.11v6.79c0,.81.25,1.36.74,1.65.31.18.95.32,1.92.44v.74h-9.94v-.74c.79-.1,1.28-.19,1.48-.27.69-.26,1.03-.87,1.03-1.83v-14.28c0-.84-.26-1.42-.77-1.71-.29-.18-.88-.3-1.74-.38v-.74h9.94v.74c-.85,0-1.45.1-1.8.29-.57.31-.86.91-.86,1.8v6.11h7.11v-6.11c0-.69-.16-1.19-.47-1.5-.39-.39-1.12-.59-2.18-.59v-.74h10.03v.74c-.81,0-1.4.11-1.77.32-.55.31-.83.9-.83,1.77v14.28c0,.79.24,1.33.71,1.62.31.2.94.35,1.89.47Z"/>
      <path class="cls-3" d="m226.22,426.15l.71.42c-.88,1.37-1.78,2.33-2.67,2.88s-1.95.83-3.17.83c-1.63,0-3-.57-4.1-1.71-1.26-1.32-1.89-3.16-1.89-5.53,0-2.13.58-3.85,1.74-5.17,1.16-1.32,2.61-1.98,4.34-1.98s3.07.56,4.01,1.68c1.06,1.26,1.59,2.94,1.59,5.04h-7.43c0,1.52.24,2.76.71,3.71.61,1.23,1.55,1.84,2.83,1.84.59,0,1.14-.14,1.64-.43.5-.29,1.07-.81,1.7-1.57Zm-7.02-4.63h3.95c0-.77-.01-1.4-.04-1.9-.03-.5-.1-.97-.22-1.4-.12-.43-.28-.76-.47-.97-.28-.3-.65-.44-1.12-.44-.65,0-1.13.28-1.45.83-.43.75-.65,2.05-.65,3.89Z"/>
      <path class="cls-3" d="m241.41,427.95l.44.63c-.45.54-.94.96-1.47,1.25s-1.12.45-1.77.45c-.9,0-1.55-.24-1.95-.72-.22-.26-.39-.72-.53-1.38-.83.84-1.76,1.43-2.8,1.77-.67.22-1.3.33-1.89.33-.83,0-1.54-.25-2.15-.74-.73-.59-1.09-1.4-1.09-2.42,0-1.38.8-2.52,2.39-3.43,1.02-.59,2.87-1.29,5.55-2.1v-2.16c0-.85-.16-1.47-.47-1.86-.39-.49-1.1-.74-2.12-.74-.49,0-.9.11-1.24.34-.33.23-.5.47-.5.72,0,.16.15.42.44.8s.44.78.44,1.21c0,.51-.22.93-.65,1.27-.33.26-.78.38-1.33.38-.63,0-1.11-.17-1.45-.5s-.5-.84-.5-1.5c0-1,.46-1.85,1.39-2.54,1-.75,2.38-1.12,4.13-1.12s3.17.34,4.26,1.02c1.09.68,1.64,1.69,1.64,3.02v7.7c0,.2.03.37.1.52.07.15.25.22.55.22.12,0,.22-.04.29-.12l.29-.29Zm-5.28-1.06v-4.28c-1.09.24-1.97.67-2.63,1.31-.66.64-1,1.39-1,2.26,0,.51.13.97.39,1.37s.63.6,1.13.6c.46,0,.88-.15,1.28-.44.2-.14.48-.41.83-.83Z"/>
      <path class="cls-3" d="m249.73,429.1v.74h-7.05v-.74c.51,0,.9-.21,1.18-.62.22-.33.32-.71.32-1.15v-15c0-.53-.13-.95-.4-1.25-.27-.3-.63-.46-1.11-.46v-.74h5.61v17.44c0,.53.1.96.31,1.28.21.32.58.49,1.14.49Z"/>
      <path class="cls-3" d="m259.4,416.23v1.3h-2.77v8.88c0,.47.04.81.12,1,.18.45.52.68,1.03.68.31,0,.59-.1.83-.29.24-.2.52-.61.86-1.24l.74.32c-.47.96-.93,1.67-1.39,2.12-.79.79-1.77,1.18-2.95,1.18-1.36,0-2.31-.43-2.86-1.3-.31-.51-.47-1.11-.47-1.8v-9.56h-1.53v-.8c.88-.75,1.64-1.46,2.27-2.15.81-.89,1.68-2,2.63-3.33h.74v4.99h2.77Z"/>
      <path class="cls-3" d="m275.98,429.1v.74h-6.93v-.71c.92-.08,1.39-.64,1.39-1.68v-7.14c0-.69-.07-1.2-.21-1.53-.26-.61-.73-.91-1.42-.91-.51,0-1.05.24-1.61.71s-.84.81-.84,1v7.85c0,.45.07.79.21,1.03.22.37.63.59,1.24.65v.74h-7.11v-.71c.61-.12,1-.26,1.18-.41.25-.24.38-.69.38-1.36v-15.04c0-.65-.1-1.06-.29-1.24-.2-.18-.62-.33-1.27-.47v-.71h5.67v8.29c.71-.83,1.4-1.42,2.06-1.77.67-.35,1.39-.53,2.15-.53,1,0,1.86.29,2.57.85.92.75,1.39,1.84,1.39,3.3v7.3c0,.45.06.8.18,1.06.22.47.64.71,1.27.71Z"/>
    </g>
  </g>
</svg>